<svg xmlns="http://www.w3.org/2000/svg" viewBox="0 0 375 351"><linearGradient id="a" gradientUnits="userSpaceOnUse" x1="187" y1="351" x2="187" y2="-147.74" gradientTransform="matrix(1 0 0 -1 0 352)"><stop offset="0" stop-color="#31b5ff" stop-opacity=".15"/><stop offset=".074" stop-color="#064f92" stop-opacity="0"/><stop offset="1" stop-color="#000c16" stop-opacity="0"/></linearGradient><path d="M258.6 14.1H406l-.2 336.9H-32V39.1l1.2-4.4h1.2l1.2-1h1.2l1.2-.4 1.2-.4h1.2l1.2-1.2h1.2l1.2-.4 1.2-.4h1.2l1.2.4h1.2l1.2.9 1.2.9h1.2l1.2-.3h1.2l1.2.2 1.2.2H-5l1.2-1.2h1.2l1.2-.2 1.2-.2H1l1.2.6h1.2l1.2-.4 1.4-.6h1.2l1.2 1.4h1.2l1.2-.3L12 32h1.2l1.2.8h1.2l1.2-.2 1.2-.2h1.2l1.2.8H22l1.2.3 1.2.3h1.2l1.2-2.9H28l1.2.4 1.2.4h1.2l1.2-.7H34l1.2-1 1.2-1h1.2l1.2-.6H40l1.2.7 1.2.7h4l1.2.1 1.2.1H50l1.2-.2h1.2l1.2.6 1.2.6H56l1.2-1.4h1.2l1.2 1.1 1.2 1.1H62l1.2.5h1.2l1.2-1.8h1.2l1.2-.8h1.2l1.2-1.1 1.2-1.1h1.2L74 31h1.2l1.2.1 1.2.1h1.2l1.2 2.5h2l1.2.8 1.2.8h1.2l1.2-.2H88l1.2.7 1.2.7h1.2l1.2-.4H94l1.2 1.2 1.2 1.2H98l1.2-6.6h1.2l1.2 1.5 1.2 1.5h4.8l1.2-.7h1.2l1.2-1.3 1.2-1.3h1.2l1.2-.1h1.2l1.2-.9 1.2-.9h1.2l1.2 1.8h1.2l1.2-.2 1.2-.2h1.2l1.2 2.9 1.2.7 1.2.7 1.2.2 1.2.2h1.2l1.2-3.5h1.2l1.2-3.3 1.2-3.3h1.2l1.2 3.2h1.2l1.2-.2 1.2-.2h1.2l1.2-4h1.2l1.2-.2 1.2-.2h1.2l1.2 1.2h1.2l1.2-16 1.2-.2h3.6l1.2-2h4.8l1.2-.3h4.8l1.2.7h1.2l1.2-1.2 1.2-1.2h3.6l1.2 1 1.2 1h1.2l1.2.5 1.2.4 1.2.4L188 8l1.2-.4h1.2l1.2.5h1.2l1.2-.4 1.2-.4h1.2l1.2 1.1 1.2 1.1h1.2l1.2-.1h1.2l1.2-1.1 1.2-1.1h1.2l1.2-1.5h3.6l1.2-.5 1.2-.5 1.2-2.9h1.2l1.2-.6 1.2-.6h1.2l1.2.5h1.2l1.2.5 1.2.5h1.2l1.2.9h1.2l1.2-.2 1.2-.2h1.2l1.2-.2 1.2-.2 1.2-.2 1.2-.5 1.2-.5h7.2l1.2.6 1.2.6h1.2l1.2 6.7h1.2l1.2 2 1.2 2h1.2l4.6 1.2z" fill="url(#a)"/><linearGradient id="b" gradientUnits="userSpaceOnUse" x1="181.699" y1="307.018" x2="181.699" y2="351" gradientTransform="matrix(1 0 0 -1 0 352)"><stop offset="0" stop-color="#2f7bc2"/><stop offset="1" stop-color="#04d67e"/></linearGradient><path d="M-11 33l1.2-.3h1.2l1.2.2 1.2.2H-5l1.2-1.2h1.2l1.2-.2 1.4-.2h1.2l1.2.6h1.2l1.2-.4 1.2-.4h1.2l1.2 1.4h1.2l1.2-.3 1.2-.3h1.2l1.2.8H16l1.2-.2 1.2-.2h1.2l1.2.8H22l1.2.3 1.2.3h1.2l1.2-2.9H28l1.2.4 1.2.4h1.2l1.2-.7H34l1.2-1 1.2-1H38l1.2-.6h1.2l1.2.7 1.2.7h3.6l1.2.1 1.2.1H50l1.2-.2h1.2l1.2.6 1.2.6H56l1.2-1.4h1.2l1.2 1.1 1.2 1.1H62l1.2.5H65l1.2-1.8h1.2l1.2-.8h1.2l1.2-1.1 1.2-1.1h1.2l1.2 3.5H76l1.2.1 1.2.1h1.2l1.2 2.5H82l1.2.8 1.2.8h1.2l1.2-.2H88l1.2.7 1.2.7H92l1.2-.4h1.2l1.2 1.2 1.2 1.2H98l1.2-6.6h1.2l1.2 1.5 1.2 1.5h4.8l1.2-.7h1.2l1.2-1.3 1.2-1.3h1.2l1.2-.1h1.2l1.2-.9 1.2-.9h1.2l1.2 1.8h1.2l1.2-.2 1.2-.2h1.2l1.2 2.9 1.2.7 1.2.7 1.2.2 1.2.2h1.2l1.2-3.5h1.2l1.2-3.3 1.2-3.3h1.2L140 29h1.2l1.2-.2 1.2-.2h1.2l1.2-4h1.2l1.2-.2 1.2-.2h1.2l1.2 1.2h1.2l1.2-16 1.2-.2h3.6l1.2-2h4.8l1.2-.3h4.8l1.2.7h1.2l1.2-1.2 1.2-1.2h3.6l1.2 1 1.2 1h1.2l1.2.5 1.2.4 1.2.4 1.2-.4 1.2-.4h1.2l1.2.5h1.2l1.2-.4 1.2-.4h1.2l1.2 1.1 1.2 1.1h1.2l1.2-.1h1.2l1.2-1.1 1.2-1.1h1.2l1.2-1.5h3.6l1.2-.5 1.2-.5 1.2-2.9h1.2l1.2-.6 1.2-.6h1.2l1.2.5h1.2l1.2.5 1.2.5h1.2l1.2.9h1.2l1.2-.2 1.2-.2h1.2l1.2-.2 1.2-.2 1.2-.2 1.2-.5 1.2-.5h7.2l1.2.6 1.2.6h1.2l1.2 6.7h1.2l1.2 2 1.2 2h1.2l1.2 1.1h115.7" fill="none" stroke="url(#b)" stroke-width="1.5" stroke-linecap="round" stroke-linejoin="round"/></svg>