<svg xmlns="http://www.w3.org/2000/svg" viewBox="0 0 375 351"><path d="M258.6 14.1H406l-.2 336.9H-32V39.1l1.2-4.4h1.2l1.2-1h1.2l1.2-.4 1.2-.4h1.2l1.2-1.2h1.2l1.2-.4 1.2-.4h1.2l1.2.4h1.2l1.2.9 1.2.9h1.2l1.2-.3h1.2l1.2.2 1.2.2H-5l1.2-1.2h1.2l1.2-.2 1.2-.2H1l1.2.6h1.2l1.2-.4 1.4-.6h1.2l1.2 1.4h1.2l1.2-.3L12 32h1.2l1.2.8h1.2l1.2-.2 1.2-.2h1.2l1.2.8H22l1.2.3 1.2.3h1.2l1.2-2.9H28l1.2.4 1.2.4h1.2l1.2-.7H34l1.2-1 1.2-1h1.2l1.2-.6H40l1.2.7 1.2.7h4l1.2.1 1.2.1H50l1.2-.2h1.2l1.2.6 1.2.6H56l1.2-1.4h1.2l1.2 1.1 1.2 1.1H62l1.2.5h1.2l1.2-1.8h1.2l1.2-.8h1.2l1.2-1.1 1.2-1.1h1.2L74 31h1.2l1.2.1 1.2.1h1.2l1.2 2.5h2l1.2.8 1.2.8h1.2l1.2-.2H88l1.2.7 1.2.7h1.2l1.2-.4H94l1.2 1.2 1.2 1.2H98l1.2-6.6h1.2l1.2 1.5 1.2 1.5h4.8l1.2-.7h1.2l1.2-1.3 1.2-1.3h1.2l1.2-.1h1.2l1.2-.9 1.2-.9h1.2l1.2 1.8h1.2l1.2-.2 1.2-.2h1.2l1.2 2.9 1.2.7 1.2.7 1.2.2 1.2.2h1.2l1.2-3.5h1.2l1.2-3.3 1.2-3.3h1.2l1.2 3.2h1.2l1.2-.2 1.2-.2h1.2l1.2-4h1.2l1.2-.2 1.2-.2h1.2l1.2 1.2h1.2l1.2-16 1.2-.2h3.6l1.2-2h4.8l1.2-.3h4.8l1.2.7h1.2l1.2-1.2 1.2-1.2h3.6l1.2 1 1.2 1h1.2l1.2.5 1.2.4 1.2.4L188 8l1.2-.4h1.2l1.2.5h1.2l1.2-.4 1.2-.4h1.2l1.2 1.1 1.2 1.1h1.2l1.2-.1h1.2l1.2-1.1 1.2-1.1h1.2l1.2-1.5h3.6l1.2-.5 1.2-.5 1.2-2.9h1.2l1.2-.6 1.2-.6h1.2l1.2.5h1.2l1.2.5 1.2.5h1.2l1.2.9h1.2l1.2-.2 1.2-.2h1.2l1.2-.2 1.2-.2 1.2-.2 1.2-.5 1.2-.5h7.2l1.2.6 1.2.6h1.2l1.2 6.7h1.2l1.2 2 1.2 2h1.2l4.6 1.2z" fill="#020202"/></svg>