<svg width="28" height="28" fill="none" xmlns="http://www.w3.org/2000/svg"><path fill="#000" fill-opacity="0" d="M1.425.731h25.833v25.81H1.425z"/><rect x="1.425" y=".731" width="25.833" height="25.809" rx="12.905" stroke="#99CEFF" stroke-linecap="round"/><path fill="#000" fill-opacity="0" d="M9.58 8.201h9.518v12.225H9.58z"/><path fill="#000" fill-opacity="0" d="M9.58 8.201h9.518v12.225H9.58z"/><path d="M18.377 14.276c-.424-.297-1.029-.415-1.029-.415s.512-.276.72-.55c.21-.276.314-.702.332-.923.017-.222.058-1.15-.72-1.684-.603-.413-1.293-.577-2.22-.63V8.2h-1.243v1.85h-.947V8.2h-1.243v1.85H9.58v1.2h.719c.195 0 .544.02.692.174.148.153.175.234.175.534v4.777c0 .113-.024.254-.128.345-.105.092-.21.114-.46.114h-.743L9.58 18.58h2.446v1.846h1.243V18.58h.947v1.846h1.243V18.55c.322-.017.621-.04.796-.061.355-.043 1.156-.13 1.906-.615.75-.486.918-1.247.935-2.013.018-.766-.296-1.29-.72-1.586zm-5.107-2.919s.395-.032.784-.027c.39.006.732.016 1.244.162.51.146.813.502.824.923.012.42-.186.701-.534.88-.349.177-.83.274-1.284.29-.453.017-1.034 0-1.034 0v-2.228zm2.783 5.52c-.285.145-.854.275-1.406.312-.552.038-1.377.022-1.377.022v-2.476s.79-.038 1.406 0c.616.037 1.133.183 1.365.291.232.108.64.345.64.912 0 .566-.344.793-.628.938z" fill="#99CEFF"/></svg>