<svg width="28" height="28" fill="none" xmlns="http://www.w3.org/2000/svg"><path fill="#000" fill-opacity="0" d="M1.425.731h25.833v25.81H1.425z"/><path d="M20.163 12.346l.296-1.517c0-.101-.05-.177-.148-.177h-1.952l.296-1.618c.025-.076-.05-.152-.123-.152h-1.854a.344.344 0 0 0-.32.278l-.668 3.465h-2.298l.692-3.591c0-.076-.074-.152-.173-.152h-1.853a.344.344 0 0 0-.322.278l-.296 1.492H9.61a.344.344 0 0 0-.32.278l-.297 1.518c-.025.1.049.177.123.177h1.952l-.37 1.972H8.845a.344.344 0 0 0-.321.278l-.296 1.518c-.025.1.049.177.123.177h1.952l-.296 1.618c-.025.101.05.177.123.177h1.853a.344.344 0 0 0 .322-.278l.667-3.465h2.298l-.692 3.591c-.025.102.05.177.124.177h1.927a.344.344 0 0 0 .321-.278l.297-1.492H19.1a.345.345 0 0 0 .321-.278l.297-1.517c.025-.101-.05-.177-.124-.177h-1.952l.37-1.973h1.854c.124-.05.272-.177.297-.329z" fill="#99CEFF"/><rect x="1.425" y=".731" width="25.833" height="25.809" rx="12.905" stroke="#99CEFF" stroke-linecap="round"/></svg>