<svg width="28" height="28" fill="none" xmlns="http://www.w3.org/2000/svg"><path fill="#000" fill-opacity="0" d="M1.425.731h25.833v25.81H1.425z"/><rect x="1.425" y=".731" width="25.833" height="25.809" rx="12.905" stroke="#99CEFF" stroke-linecap="round"/><path fill="#000" fill-opacity="0" d="M10.261 6.166h8.158V20.43h-8.158z"/><path fill="#000" fill-opacity="0" d="M10.261 6.166h8.158V20.43h-8.158z"/><path fill="#000" fill-opacity="0" d="M10.261 6.166h8.158V20.43h-8.158z"/><path d="M14.211 16.015v-4.39l-3.95 1.878 3.95 2.512zm0-4.692V6.168l-3.822 6.973 3.822-1.818zm.255-5.157v5.157l3.877 1.844-3.877-7zm0 5.459v4.39l3.953-2.51-3.953-1.88zm-.255 8.804V16.9l-3.923-2.495 3.923 6.025zm.255 0l3.924-6.024-3.924 2.493v3.531z" fill="#99CEFF"/></svg>