<svg id="Слой_1" xmlns="http://www.w3.org/2000/svg" viewBox="0 0 83.9 49.4"><style>.st0{fill-opacity:0}.st4{fill:none;stroke:#fff;stroke-width:2}.st5{fill:#fff}</style><path class="st0" d="M68.9 35.9h14v14h-14z"/><path d="M82.9 39.3l-1.1 2.6-3-.7" fill="none" stroke="#99ceff" stroke-width="2" stroke-linecap="round" stroke-miterlimit="6.407"/><path d="M81.6 45.9c.2-.4 0-.8-.3-1-.4-.2-.8 0-1 .3l1.3.7zm-10.5-1.7c-.7-2.7.9-5.4 3.5-6.1l-.4-1.4c-3.4.9-5.5 4.5-4.6 7.9l1.5-.4zm3.5-6.1c2.7-.7 5.4.9 6.1 3.5l1.4-.4c-.9-3.4-4.5-5.5-7.9-4.6l.4 1.5zm2.5 9.6c-2.7.7-5.4-.9-6.1-3.5l-1.4.4c.9 3.4 4.5 5.5 7.9 4.6l-.4-1.5zm3.2-2.5c-.6 1.2-1.7 2.1-3.1 2.5l.4 1.4c1.8-.5 3.3-1.7 4.1-3.3l-1.4-.6z" fill="#99ceff"/><g opacity=".3"><path class="st0" d="M3 4.1h77.7v41.3H3z"/><path class="st4" d="M9.5 39.6l23.7-23.8"/><ellipse class="st5" cx="10.1" cy="38.3" rx="7.1" ry="7.1"/><ellipse class="st5" cx="32.4" cy="17" rx="7.1" ry="7.1"/><path class="st4" d="M31.1 15.9l23.1 21.7"/><ellipse class="st5" cx="53.6" cy="38.2" rx="7.1" ry="7.1"/><path class="st4" d="M74.6 11.1L54.2 37.6"/><ellipse class="st5" cx="73.7" cy="11.1" rx="7.1" ry="7.1"/></g></svg>