<svg width="114" height="23" viewBox="0 0 114 23" fill="none" xmlns="http://www.w3.org/2000/svg">
<rect width="114" height="23.0001" fill="black" fill-opacity="0"/>
<rect width="114" height="16.3057" fill="black" fill-opacity="0"/>
<path d="M18.1829 7.18033L18.6345 4.93642C18.6721 4.78682 18.5592 4.67463 18.4463 4.67463H15.4359L15.8874 2.28112C15.9251 2.13153 15.8122 2.01933 15.6993 2.01933H12.877C12.6512 2.01933 12.4254 2.20632 12.3878 2.43072L11.3718 7.55431H7.87215L8.9258 2.24372C8.96343 2.09413 8.85054 1.98193 8.73765 1.98193H5.91536C5.68958 1.98193 5.4638 2.16893 5.42617 2.39332L4.89934 4.67463H2.11469C1.8889 4.67463 1.66312 4.86162 1.62549 5.08601L1.17393 7.32992C1.13629 7.47952 1.24919 7.59171 1.36208 7.59171H4.33488L3.77043 10.5088H0.948143C0.72236 10.5088 0.496577 10.6958 0.458947 10.9202L0.0073813 13.1641C-0.0302491 13.3137 0.0826422 13.4259 0.195534 13.4259H3.16834L2.71677 15.8194C2.71677 15.969 2.79203 16.0812 2.94256 16.0812H5.76484C5.99062 16.0812 6.21641 15.8942 6.25404 15.6698L7.27006 10.5462H10.7697L9.71604 15.8568C9.71604 15.969 9.7913 16.0812 9.94182 16.0812H12.8017C13.0275 16.0812 13.2533 15.8942 13.2909 15.6698L13.7425 13.4633H16.5648C16.7906 13.4633 17.0163 13.2763 17.054 13.0519L17.5055 10.808C17.5432 10.6584 17.4303 10.5462 17.3174 10.5462H14.3446L14.909 7.62911H17.7313C17.9195 7.59171 18.1453 7.40472 18.1829 7.18033Z" fill="white"/>
<rect width="51.4159" height="14.1741" fill="black" fill-opacity="0" transform="translate(19.7791 2.05688)"/>
<path d="M36.7727 15.9318C36.6974 16.044 36.5845 16.0814 36.3587 16.0814H33.8375C33.4988 16.0814 33.3483 15.9318 33.4236 15.5953L34.5901 9.6115C34.7406 8.90093 34.703 8.45214 34.5525 8.22775C34.402 8.00336 34.1009 7.89117 33.6493 7.89117C33.3859 7.89117 33.0096 7.96596 32.5957 8.11556C32.1818 8.26515 31.8055 8.41475 31.4668 8.56434L31.2786 9.6115L30.1121 15.5953C30.0745 15.7075 30.0368 15.8196 29.9616 15.9318C29.8863 16.0066 29.7358 16.0814 29.5476 16.0814H27.0264C26.6877 16.0814 26.5748 15.9318 26.6501 15.5953L27.8166 9.5367C27.9295 8.90093 27.9295 8.45214 27.779 8.22775C27.6285 8.00336 27.3274 7.89117 26.9135 7.89117C26.6501 7.89117 26.2738 7.96596 25.8598 8.07816C25.4459 8.22775 25.0696 8.37735 24.6933 8.52694L23.301 15.5953C23.2633 15.7075 23.2257 15.8196 23.1504 15.9318C23.0752 16.044 22.9247 16.0814 22.6989 16.0814H20.1776C19.839 16.0814 19.7261 15.9318 19.8013 15.5953L21.7958 5.34807C21.8334 5.19847 21.871 5.08628 21.9839 4.97408C22.0592 4.89929 22.2097 4.82449 22.3978 4.82449H24.9191C25.1449 4.82449 25.2578 4.86189 25.2954 4.97408C25.333 5.08628 25.333 5.19847 25.2954 5.31067L25.2201 5.87165L25.2578 5.90905C25.8222 5.49766 26.4243 5.19847 27.0264 4.97408C27.6285 4.74969 28.2682 4.6375 28.8326 4.6375C29.51 4.6375 30.1121 4.74969 30.5636 5.01148C31.0528 5.27327 31.3539 5.64726 31.4668 6.17083C32.1065 5.72205 32.7838 5.34807 33.5365 5.04888C34.2514 4.74969 34.9664 4.6001 35.6438 4.6001C36.4716 4.6001 37.0737 4.74969 37.45 5.01148C37.864 5.27327 38.1274 5.60986 38.2403 6.05864C38.3908 6.47002 38.4284 6.9562 38.3532 7.47978C38.3155 8.00336 38.2026 8.52694 38.1274 9.08792L36.8479 15.5953C36.8856 15.7075 36.8479 15.8196 36.7727 15.9318Z" fill="white"/>
<path d="M38.9929 12.4535C38.9929 11.9673 39.0306 11.4811 39.1058 10.9949C39.1811 10.5087 39.294 10.0225 39.4069 9.53637C39.5574 8.97539 39.7832 8.37701 40.0466 7.81604C40.31 7.25506 40.6863 6.73148 41.1755 6.2453C41.6647 5.75912 42.2668 5.38513 43.0194 5.12334C43.7344 4.82415 44.6751 4.67456 45.7664 4.67456C46.2932 4.67456 46.8201 4.74936 47.3092 4.86155C47.7984 4.97375 48.25 5.16074 48.6263 5.42253C49.0026 5.68432 49.3037 5.98351 49.5294 6.39489C49.7552 6.76888 49.8681 7.21766 49.8681 7.74124C49.8681 8.6388 49.6423 9.34937 49.1531 9.91035C48.6639 10.4713 48.0619 10.8827 47.3469 11.1819C46.6319 11.4811 45.8417 11.6681 45.0138 11.7803C44.1859 11.8925 43.1699 11.9673 42.4549 12.0047C42.3797 12.1543 42.342 12.603 42.342 12.8274C42.342 13.5006 43.5086 13.5754 43.7344 13.6128C44.5999 13.725 46.3685 13.5006 47.6479 13.2762C47.7984 13.2388 47.949 13.2388 48.0619 13.2762C48.1747 13.3136 48.2124 13.4258 48.2124 13.6502V14.7348C48.2124 15.0339 48.1747 15.2583 48.0619 15.3705C47.949 15.4827 47.7608 15.6323 47.4221 15.7445C47.1587 15.8193 46.8577 15.9315 46.519 15.9689C46.1803 16.0437 45.8417 16.0811 45.4654 16.1185C45.0891 16.1559 44.7504 16.1933 44.3741 16.1933C43.9978 16.2307 43.6591 16.2307 43.3581 16.2307C42.7183 16.2307 42.1162 16.1559 41.5518 16.0437C41.025 15.8941 40.5734 15.6697 40.1595 15.3705C39.7832 15.0713 39.4821 14.66 39.2563 14.1738C39.1058 13.725 38.9929 13.1266 38.9929 12.4535ZM46.5943 8.15262C46.5943 7.85343 46.4814 7.62904 46.2932 7.44205C46.1051 7.25506 45.804 7.14286 45.4277 7.14286C45.0514 7.14286 44.5622 7.25506 44.2988 7.44205C44.0354 7.62904 43.8096 7.89083 43.6215 8.19002C43.4333 8.48921 43.2828 8.8258 43.1699 9.19978C43.057 9.57377 43.057 9.53637 42.9817 9.87295C44.8633 9.94775 46.0674 9.34937 46.2932 9.08758C46.4814 8.86319 46.5943 8.56401 46.5943 8.15262Z" fill="white"/>
<path d="M57.8462 15.0342C57.8462 15.1838 57.8086 15.3708 57.6957 15.4829C57.5828 15.6325 57.4322 15.7073 57.2817 15.7447C56.9807 15.8195 56.6796 15.8943 56.341 15.9691C56.0023 16.0439 55.7012 16.0813 55.4002 16.1187C55.0992 16.1561 54.7981 16.1935 54.5347 16.1935C54.2713 16.1935 54.0455 16.2309 53.8574 16.2309C53.1424 16.2309 52.5779 16.1187 52.164 15.9317C51.7501 15.7447 51.449 15.4455 51.2985 15.109C51.1103 14.7724 51.0351 14.3984 51.0351 13.9496C51.0351 13.5008 51.0727 13.052 51.1856 12.6033L52.2016 7.51707H51.1856C50.9974 7.51707 50.8846 7.47967 50.8469 7.40487C50.8093 7.33007 50.7717 7.18048 50.8093 7.03089L51.148 5.31055C51.1856 5.16096 51.2232 5.01137 51.3361 4.93657C51.4114 4.86177 51.5619 4.82437 51.75 4.82437H52.7661L53.18 2.65526C53.2929 2.20648 53.4811 2.05688 53.8574 2.05688H56.3033C56.6796 2.05688 56.6044 2.28128 56.6044 2.46827L56.1528 4.82437H58.4859C58.7117 4.82437 58.8246 4.86177 58.8622 4.93657C58.8998 5.01137 58.8998 5.12356 58.8622 5.31055L58.5235 7.03089C58.4859 7.18048 58.4483 7.33007 58.373 7.40487C58.2977 7.47967 58.1472 7.51707 57.9591 7.51707H55.5884L54.7981 11.7431C54.7605 11.9675 54.7229 12.1545 54.7229 12.3041C54.7229 12.4537 54.7605 12.5659 54.7981 12.6781C54.8734 12.7903 54.9863 12.8651 55.1744 12.9025C55.3626 12.9398 55.5884 12.9772 55.927 12.9772C56.1152 12.9772 56.341 12.9772 56.642 12.9398C56.9431 12.9398 57.2441 12.9025 57.5075 12.8651C57.658 12.8651 57.7709 12.8651 57.8462 12.9025C57.9214 12.9398 57.9591 13.0894 57.9591 13.3512L57.8462 15.0342Z" fill="white"/>
<path d="M69.21 15.5579C69.21 15.6701 69.1348 15.7823 69.0595 15.8945C68.9843 16.0067 68.8337 16.0441 68.608 16.0441H66.0115C65.8233 16.0441 65.7104 16.0067 65.6728 15.9319C65.6351 15.8571 65.6351 15.7449 65.6728 15.5953L65.7857 15.0343L65.748 14.9969C65.1083 15.4083 64.4686 15.7449 63.9418 15.9319C63.3773 16.1189 62.8129 16.2311 62.286 16.2311C61.1571 16.2311 60.3669 15.9319 59.953 15.3709C59.539 14.7726 59.3132 13.9872 59.3132 13.0148C59.3132 12.6408 59.3509 12.2669 59.3885 11.8555C59.4261 11.4441 59.5014 11.0327 59.5766 10.5839C59.7272 9.68636 59.953 8.90099 60.2164 8.19042C60.4798 7.47985 60.7808 6.84407 61.1948 6.35789C61.6087 5.83431 62.0979 5.46033 62.6623 5.16114C63.2644 4.86195 63.9794 4.74976 64.8449 4.74976C65.2588 4.74976 65.7104 4.82455 66.2372 4.93675C66.7641 5.08634 67.2156 5.27333 67.6672 5.49773L67.7425 5.12374C67.7801 4.97415 67.8177 4.86195 67.893 4.82455C67.9682 4.78715 68.0811 4.74976 68.2317 4.74976H70.7905C71.0163 4.74976 71.1292 4.78715 71.1668 4.89935C71.2045 4.97415 71.2045 5.12374 71.1668 5.27334L69.21 15.5579ZM65.447 7.62944C65.146 7.62944 64.8073 7.66684 64.5815 7.77903C64.3557 7.89123 64.1676 8.00343 63.9794 8.22782C63.8289 8.41481 63.5655 9.01319 63.4526 9.34977C63.3397 9.68636 63.2268 10.0603 63.1515 10.5091C63.0386 11.1075 62.9634 11.7059 62.9634 12.0425C62.9634 12.5286 63.0386 12.8652 63.1892 13.0148C63.3397 13.1644 63.6031 13.2392 63.9418 13.2392C64.2804 13.2392 64.8073 13.127 65.2588 13.0148C65.6351 12.9026 66.0867 12.6782 66.2749 12.566L67.178 8.04082C66.5383 7.70424 65.9362 7.62944 65.447 7.62944Z" fill="white"/>
<rect width="41.8775" height="16.3057" fill="black" fill-opacity="0" transform="translate(72.1226)"/>
<path d="M81.3649 15.67C81.3273 15.9318 81.1768 16.044 80.8757 16.044H79.8973C79.6339 16.044 79.521 15.9318 79.5963 15.67L80.9133 8.93824C80.9886 8.41466 81.0639 8.00328 81.0639 7.66669C81.0639 7.33011 81.0262 7.06832 80.9133 6.84393C80.8005 6.65693 80.6499 6.50734 80.4241 6.43254C80.1984 6.35775 79.8973 6.32035 79.5586 6.32035C79.2952 6.32035 78.9566 6.35775 78.5426 6.46994C78.1287 6.58214 77.7524 6.69433 77.3761 6.84393C76.9998 6.99352 76.6235 7.10572 76.2472 7.25531C75.9085 7.4049 75.6451 7.5171 75.4569 7.5919L73.8764 15.67C73.8388 15.9318 73.6883 16.044 73.3873 16.044H72.4465C72.1831 16.044 72.0702 15.9318 72.1454 15.67L75.1935 0.373985C75.2688 0.112196 75.4193 0 75.6451 0H76.5858C76.8493 0 76.9621 0.112196 76.9245 0.373985L75.7956 6.17075H75.8332C76.059 6.05856 76.3224 5.90896 76.6611 5.72197C76.9998 5.57238 77.3385 5.38539 77.7524 5.27319C78.1287 5.1236 78.5426 5.0114 78.9566 4.8992C79.3705 4.78701 79.7844 4.74961 80.1984 4.74961C80.951 4.74961 81.5154 4.86181 81.8917 5.0862C82.3057 5.31059 82.5691 5.60978 82.7196 5.94636C82.8701 6.32035 82.9454 6.76913 82.9078 7.29271C82.8701 7.81629 82.7949 8.37727 82.682 8.97564L81.3649 15.67Z" fill="white"/>
<path d="M92.0141 15.67C91.9764 15.9318 91.8259 16.044 91.5625 16.044H90.6218C90.3583 16.044 90.2454 15.9318 90.2831 15.67L90.4336 14.8099C89.8691 15.1465 89.2294 15.483 88.5521 15.8196C87.8747 16.1188 87.0845 16.2684 86.219 16.2684C85.1653 16.2684 84.4127 16.0066 83.9612 15.483C83.5096 14.9595 83.2838 14.1741 83.2838 13.1643C83.2838 12.7903 83.3214 12.379 83.3591 11.9676C83.3967 11.5188 83.472 11.07 83.5849 10.6586C83.773 9.72367 83.9988 8.8635 84.2622 8.15293C84.5256 7.44236 84.8643 6.80658 85.2782 6.3204C85.6922 5.83422 86.219 5.42284 86.8211 5.19845C87.4232 4.93666 88.1758 4.82446 89.0789 4.82446C89.4928 4.82446 89.982 4.89926 90.5465 5.04885C91.1109 5.19845 91.6378 5.38544 92.2022 5.68463L92.2399 5.64723L92.3151 5.31064C92.3528 5.16105 92.3904 5.08625 92.4656 5.04885C92.5409 5.01146 92.6538 5.01146 92.8043 5.01146H93.6698C93.8203 5.01146 93.9332 5.04885 94.0085 5.08625C94.0461 5.12365 94.0461 5.23585 94.0461 5.42284L92.0141 15.67ZM92.0141 7.03097C90.9228 6.54479 89.8691 6.3204 88.8531 6.3204C88.3639 6.3204 87.9124 6.3952 87.5737 6.54479C87.1974 6.69439 86.8963 6.91878 86.6329 7.25537C86.3695 7.59195 86.1437 8.04073 85.9556 8.60171C85.7674 9.16269 85.5793 9.83586 85.4287 10.6586C85.3535 11.1448 85.2782 11.5936 85.203 11.9676C85.1653 12.379 85.1277 12.6781 85.1277 12.9399C85.1277 13.6505 85.2782 14.0993 85.5416 14.3237C85.8051 14.5481 86.219 14.6603 86.7458 14.6603C87.0092 14.6603 87.3479 14.6229 87.7242 14.5107C88.1005 14.4359 88.4768 14.3237 88.8531 14.1741C89.2294 14.0245 89.6057 13.9123 89.9444 13.7627C90.2831 13.6131 90.5841 13.5009 90.7723 13.3887L92.0141 7.03097Z" fill="white"/>
<path d="M103.153 6.28296C103.115 6.39515 103.04 6.46995 102.927 6.50735C102.814 6.54475 102.663 6.54475 102.513 6.54475C102.061 6.50735 101.572 6.43255 101.083 6.39516C100.594 6.35776 100.105 6.32036 99.6153 6.32036C99.239 6.32036 98.9003 6.35776 98.5993 6.39516C98.2982 6.43255 97.9972 6.54475 97.7714 6.69434C97.5456 6.84394 97.3575 7.03093 97.2446 7.25532C97.1317 7.47971 97.0564 7.7789 97.0564 8.15288C97.0564 8.41467 97.1317 8.63907 97.2446 8.78866C97.3575 8.93825 97.508 9.08785 97.6962 9.20004C97.8843 9.31224 98.1101 9.38704 98.3735 9.46183C98.6369 9.53663 98.8627 9.57403 99.1261 9.64882C99.3519 9.68622 99.6906 9.76102 100.067 9.87322C100.443 9.98541 100.819 10.135 101.158 10.322C101.497 10.509 101.798 10.8082 102.061 11.1448C102.287 11.4814 102.438 11.9301 102.438 12.4911C102.438 13.2391 102.287 13.8749 102.061 14.361C101.798 14.8472 101.459 15.2212 101.008 15.5204C100.556 15.8196 100.029 16.0066 99.4648 16.1188C98.8627 16.231 98.2606 16.3058 97.6209 16.3058C97.3198 16.3058 97.0188 16.3058 96.6801 16.2684C96.3414 16.231 96.0028 16.1936 95.6641 16.1562C95.3254 16.1188 95.0244 16.044 94.761 16.0066C94.4599 15.9318 94.2341 15.857 94.046 15.7822C93.8578 15.67 93.8202 15.5204 93.8955 15.296L94.0836 14.8098C94.1589 14.6602 94.2341 14.5854 94.3094 14.548C94.3847 14.5106 94.4976 14.5106 94.6481 14.5106C94.8739 14.548 95.1373 14.5854 95.4007 14.5854C95.7017 14.6228 95.9651 14.6602 96.2662 14.6602C96.5672 14.6976 96.8306 14.6976 97.1317 14.735C97.3951 14.735 97.6209 14.7724 97.809 14.7724C98.223 14.7724 98.5616 14.735 98.938 14.6976C99.2766 14.6228 99.5777 14.548 99.8411 14.3984C100.104 14.2488 100.293 14.0618 100.443 13.8001C100.594 13.5383 100.669 13.2017 100.669 12.7903C100.669 12.2293 100.481 11.8553 100.104 11.6309C99.7282 11.4066 99.2766 11.257 98.7122 11.1822C98.3735 11.1448 98.0348 11.07 97.6209 10.9578C97.2069 10.8456 96.8683 10.696 96.492 10.509C96.1533 10.322 95.8523 10.0602 95.6265 9.72362C95.4007 9.38704 95.2878 8.97565 95.2878 8.45207C95.2878 7.7789 95.4007 7.21792 95.6641 6.76914C95.9275 6.32036 96.2286 5.94637 96.6801 5.64719C97.0941 5.348 97.5833 5.161 98.1477 5.04881C98.6745 4.93661 99.2766 4.86182 99.8787 4.86182C100.104 4.86182 100.368 4.86182 100.669 4.89922C100.97 4.89922 101.309 4.93661 101.647 4.97401C101.986 5.01141 102.287 5.08621 102.588 5.161C102.889 5.2358 103.153 5.3106 103.341 5.3854C103.454 5.42279 103.491 5.49759 103.529 5.57239C103.529 5.64718 103.529 5.75938 103.491 5.83418L103.153 6.28296Z" fill="white"/>
<path d="M112.448 15.67C112.41 15.9318 112.259 16.044 111.958 16.044H110.98C110.717 16.044 110.604 15.9318 110.679 15.67L111.996 8.93824C112.071 8.41466 112.147 8.00328 112.147 7.66669C112.147 7.33011 112.109 7.06832 111.996 6.84393C111.883 6.65693 111.733 6.50734 111.507 6.43254C111.281 6.35775 110.98 6.32035 110.641 6.32035C110.378 6.32035 110.039 6.35775 109.625 6.46994C109.211 6.58214 108.835 6.69433 108.459 6.84393C108.083 6.99352 107.706 7.10572 107.33 7.25531C106.991 7.4049 106.728 7.5171 106.54 7.5919L104.997 15.67C104.959 15.9318 104.809 16.044 104.508 16.044H103.567C103.303 16.044 103.191 15.9318 103.266 15.67L106.276 0.373985C106.352 0.112196 106.502 0 106.728 0H107.669C107.932 0 108.045 0.112196 108.007 0.373985L106.878 6.17075H106.916C107.142 6.05856 107.405 5.90896 107.744 5.72197C108.083 5.57238 108.421 5.38539 108.835 5.27319C109.211 5.1236 109.625 5.0114 110.039 4.8992C110.453 4.78701 110.867 4.74961 111.281 4.74961C112.034 4.74961 112.598 4.86181 112.974 5.0862C113.388 5.31059 113.652 5.60978 113.802 5.94636C113.953 6.32035 114.028 6.76913 113.99 7.29271C113.953 7.81629 113.878 8.37727 113.765 8.97564L112.448 15.67Z" fill="white"/>
<rect width="109.956" height="3.92724" fill="black" fill-opacity="0" transform="translate(2.22717 19.0728)"/>
<path d="M3.69476 19.0728C3.77002 19.0728 3.80765 19.0728 3.92054 19.0728C3.9958 19.0728 4.1087 19.0728 4.18396 19.1102C4.29685 19.1102 4.37211 19.1476 4.485 19.1476C4.59789 19.1849 4.67315 19.185 4.74841 19.2223C4.78604 19.2597 4.82367 19.2597 4.82367 19.2971C4.82367 19.3345 4.82367 19.3345 4.82367 19.3719L4.78604 19.5215C4.78604 19.5589 4.78604 19.5589 4.74841 19.5589C4.74841 19.5589 4.71078 19.5963 4.67315 19.5589C4.56026 19.5215 4.40974 19.5215 4.22159 19.5215C4.03343 19.5215 3.88291 19.4841 3.69476 19.4841C3.46898 19.4841 3.28083 19.5215 3.16793 19.5963C3.05504 19.6711 2.94215 19.7833 2.86689 19.9329C2.79163 20.0825 2.754 20.2321 2.71637 20.4191C2.67874 20.6061 2.67874 20.7931 2.67874 21.0175C2.67874 21.2045 2.67874 21.3915 2.71637 21.5785C2.754 21.7654 2.79163 21.915 2.86689 22.0646C2.94215 22.2142 3.05504 22.3264 3.16793 22.4012C3.28083 22.476 3.46898 22.5134 3.69476 22.5134C3.88291 22.5134 4.03343 22.5134 4.22159 22.476C4.37211 22.476 4.52263 22.4386 4.67315 22.4386C4.71078 22.4386 4.74841 22.4386 4.74841 22.4386L4.78604 22.476L4.82367 22.6256C4.82367 22.663 4.82367 22.663 4.82367 22.7004C4.82367 22.7378 4.78604 22.7378 4.74841 22.7378C4.67315 22.7752 4.59789 22.7752 4.485 22.8126C4.37211 22.85 4.29685 22.85 4.18396 22.85C4.07107 22.85 3.9958 22.8874 3.92054 22.8874C3.84528 22.8874 3.77002 22.8874 3.69476 22.8874C3.39372 22.8874 3.1303 22.85 2.94215 22.7378C2.754 22.6256 2.60348 22.476 2.49059 22.3264C2.37769 22.1394 2.30243 21.9524 2.2648 21.728C2.22717 21.5037 2.22717 21.3167 2.22717 21.0923C2.22717 20.8305 2.22717 20.6061 2.2648 20.3443C2.30243 20.1199 2.37769 19.8955 2.49059 19.7085C2.60348 19.5215 2.754 19.3719 2.94215 19.2597C3.1303 19.1476 3.39372 19.0728 3.69476 19.0728Z" fill="white"/>
<path d="M9.07596 20.9804C9.07596 21.2048 9.07596 21.4292 9.03832 21.691C9.00069 21.9153 8.96306 22.1397 8.85017 22.3267C8.73728 22.5137 8.58676 22.7007 8.39861 22.8129C8.21045 22.9251 7.90941 22.9999 7.57074 22.9999C7.34495 22.9999 7.1568 22.9625 7.00628 22.9251C6.85576 22.8503 6.70524 22.7755 6.59235 22.7007C6.47945 22.5885 6.40419 22.4763 6.32893 22.3641C6.25367 22.2145 6.21604 22.1023 6.17841 21.9527C6.14078 21.8032 6.10315 21.6536 6.10315 21.504C6.10315 21.3544 6.10315 21.2048 6.10315 21.0552C6.10315 20.943 6.10315 20.7934 6.10315 20.6812C6.10315 20.5316 6.14078 20.382 6.17841 20.2698C6.21604 20.1202 6.25367 20.008 6.32893 19.8584C6.40419 19.7088 6.47945 19.5966 6.59235 19.5218C6.70524 19.4096 6.81813 19.3349 7.00628 19.2975C7.1568 19.2227 7.34495 19.2227 7.57074 19.2227C7.90941 19.2227 8.17282 19.2601 8.36098 19.3723C8.54913 19.4844 8.69965 19.634 8.81254 19.821C8.92543 20.008 9.00069 20.195 9.00069 20.4194C9.07596 20.5316 9.07596 20.756 9.07596 20.9804ZM8.62439 21.0178C8.62439 20.756 8.62439 20.5316 8.58676 20.3446C8.54913 20.1576 8.5115 19.9706 8.39861 19.8584C8.32335 19.7088 8.21045 19.634 8.05993 19.5592C7.90941 19.4844 7.75889 19.447 7.53311 19.447C7.34495 19.447 7.19443 19.4844 7.04391 19.5592C6.93102 19.634 6.81813 19.7462 6.74287 19.8584C6.66761 20.008 6.59235 20.1576 6.59235 20.3446C6.55471 20.5316 6.55471 20.756 6.55471 20.9804C6.55471 21.2048 6.55471 21.4292 6.59235 21.6162C6.62998 21.8032 6.66761 21.9527 6.74287 22.1023C6.81813 22.2519 6.93102 22.3267 7.04391 22.4015C7.1568 22.4763 7.34495 22.5137 7.53311 22.5137C7.75889 22.5137 7.90941 22.4763 8.05993 22.4015C8.21045 22.3267 8.28572 22.2145 8.39861 22.1023C8.47387 21.9527 8.54913 21.8032 8.54913 21.6162C8.62439 21.504 8.62439 21.2796 8.62439 21.0178Z" fill="white"/>
<path d="M11.2201 19.9333V22.8504C11.2201 22.9252 11.1825 22.9626 11.1072 22.9626H10.8814C10.8062 22.9626 10.7686 22.9252 10.7686 22.8504V19.2227C10.7686 19.1479 10.8062 19.1479 10.8438 19.1479H11.0696C11.1072 19.1479 11.1449 19.1479 11.1449 19.1853C11.1449 19.1853 11.1825 19.2227 11.1825 19.2601L12.763 21.6537L13.064 22.1398V19.2601C13.064 19.2227 13.064 19.1853 13.1016 19.1853C13.1016 19.1853 13.1393 19.1479 13.1769 19.1479H13.4027C13.4403 19.1479 13.4403 19.1479 13.4779 19.1853C13.4779 19.1853 13.5156 19.2227 13.5156 19.2601V22.8878C13.5156 22.9626 13.4779 22.9626 13.4403 22.9626H13.2145C13.1769 22.9626 13.1393 22.9626 13.1393 22.9252C13.1016 22.9252 13.1016 22.8878 13.064 22.8504L11.5212 20.4569L11.2201 19.9333Z" fill="white"/>
<path d="M16.6768 19.0728C16.7521 19.0728 16.7897 19.0728 16.9026 19.0728C16.9779 19.0728 17.0908 19.0728 17.166 19.1102C17.2789 19.1102 17.3542 19.1476 17.4671 19.1476C17.58 19.1849 17.6552 19.185 17.7305 19.2223C17.7681 19.2597 17.8058 19.2597 17.8058 19.2971C17.8058 19.3345 17.8058 19.3345 17.8058 19.3719L17.7681 19.5215C17.7681 19.5589 17.7681 19.5589 17.7305 19.5589C17.7305 19.5589 17.6929 19.5963 17.6552 19.5589C17.5423 19.5215 17.3918 19.5215 17.2037 19.5215C17.0155 19.5215 16.865 19.4841 16.6768 19.4841C16.4511 19.4841 16.2629 19.5215 16.15 19.5963C16.0371 19.6711 15.9242 19.7833 15.849 19.9329C15.7737 20.0825 15.7361 20.2321 15.6985 20.4191C15.6608 20.6061 15.6608 20.7931 15.6608 21.0175C15.6608 21.2045 15.6608 21.3915 15.6985 21.5785C15.7361 21.7654 15.7737 21.915 15.849 22.0646C15.9242 22.2142 16.0371 22.3264 16.15 22.4012C16.2629 22.476 16.4511 22.5134 16.6768 22.5134C16.865 22.5134 17.0155 22.5134 17.2037 22.476C17.3542 22.476 17.5047 22.4386 17.6552 22.4386C17.6929 22.4386 17.7305 22.4386 17.7305 22.4386L17.7681 22.476L17.8058 22.6256C17.8058 22.663 17.8058 22.663 17.8058 22.7004C17.8058 22.7378 17.7681 22.7378 17.7305 22.7378C17.6552 22.7752 17.58 22.7752 17.4671 22.8126C17.3542 22.85 17.2789 22.85 17.166 22.85C17.0532 22.85 16.9779 22.8874 16.9026 22.8874C16.8274 22.8874 16.7521 22.8874 16.6768 22.8874C16.3758 22.8874 16.1124 22.85 15.9242 22.7378C15.7361 22.6256 15.5856 22.476 15.4727 22.3264C15.3598 22.1394 15.2845 21.9524 15.2469 21.728C15.2093 21.5037 15.1716 21.2419 15.1716 21.0175C15.1716 20.7557 15.1716 20.5313 15.2093 20.2695C15.2469 20.0451 15.3222 19.8207 15.435 19.6337C15.5479 19.4467 15.6985 19.2971 15.8866 19.1849C16.1124 19.1476 16.3758 19.0728 16.6768 19.0728Z" fill="white"/>
<path d="M22.058 20.9804C22.058 21.2048 22.058 21.4292 22.0204 21.691C21.9827 21.9153 21.9451 22.1397 21.8322 22.3267C21.7193 22.5137 21.5688 22.7007 21.3807 22.8129C21.1925 22.9251 20.8915 22.9999 20.5528 22.9999C20.327 22.9999 20.1389 22.9625 19.9883 22.9251C19.8378 22.8503 19.6873 22.7755 19.5744 22.7007C19.4615 22.5885 19.3862 22.4763 19.311 22.3641C19.2357 22.2145 19.1981 22.1023 19.1605 21.9527C19.1228 21.8032 19.0852 21.6536 19.0852 21.504C19.0852 21.3544 19.0852 21.2048 19.0852 21.0552C19.0852 20.943 19.0852 20.7934 19.0852 20.6812C19.0852 20.5316 19.1228 20.382 19.1605 20.2698C19.1981 20.1202 19.2357 20.008 19.311 19.8584C19.3862 19.7088 19.4615 19.5966 19.5744 19.5218C19.6873 19.4096 19.8002 19.3349 19.9883 19.2975C20.1765 19.2601 20.327 19.2227 20.5528 19.2227C20.8915 19.2227 21.1549 19.2601 21.343 19.3723C21.5312 19.4844 21.6817 19.634 21.7946 19.821C21.9075 20.008 21.9828 20.195 21.9828 20.4194C22.058 20.5316 22.058 20.756 22.058 20.9804ZM21.6064 21.0178C21.6064 20.756 21.6064 20.5316 21.5688 20.3446C21.5312 20.1576 21.4936 19.9706 21.3807 19.8584C21.3054 19.7088 21.1925 19.634 21.042 19.5592C20.8915 19.4844 20.7409 19.447 20.5152 19.447C20.327 19.447 20.1765 19.4844 20.026 19.5592C19.8754 19.634 19.8002 19.7462 19.7249 19.8584C19.6497 20.008 19.5744 20.1576 19.5744 20.3446C19.5744 20.569 19.5744 20.7934 19.5744 21.0178C19.5744 21.2422 19.5744 21.4666 19.612 21.6536C19.6497 21.8406 19.6873 21.9901 19.7626 22.1397C19.8378 22.2893 19.9507 22.3641 20.0636 22.4389C20.1765 22.5137 20.3646 22.5511 20.5528 22.5511C20.7786 22.5511 20.9291 22.5137 21.0796 22.4389C21.2301 22.3641 21.3054 22.2519 21.4183 22.1397C21.4936 21.9901 21.5688 21.8406 21.5688 21.6536C21.6064 21.504 21.6064 21.2796 21.6064 21.0178Z" fill="white"/>
<path d="M26.1594 22.8504C26.1594 22.8878 26.1594 22.8878 26.1594 22.9252C26.1594 22.9626 26.1218 22.9626 26.1218 22.9626H25.7831C25.7455 22.9626 25.7455 22.9626 25.7078 22.9626C25.6702 22.9626 25.6702 22.9252 25.6702 22.8878L24.9176 21.3545H24.165V22.8504C24.165 22.9252 24.1273 22.9626 24.0521 22.9626H23.7887C23.7134 22.9626 23.6758 22.9252 23.6758 22.8504V19.2227C23.6758 19.1479 23.7134 19.1479 23.7887 19.1479H24.9552C25.1057 19.1479 25.2563 19.1853 25.3692 19.2227C25.5197 19.2601 25.6326 19.3349 25.7455 19.4097C25.8583 19.4845 25.9336 19.5967 26.0089 19.7463C26.0841 19.8959 26.0841 20.0455 26.0841 20.2325C26.0841 20.3447 26.0841 20.4569 26.0465 20.5691C26.0089 20.6813 25.9712 20.7935 25.9336 20.8683C25.8583 20.9805 25.7831 21.0553 25.7078 21.1301C25.5949 21.2049 25.482 21.2797 25.3692 21.3171L26.1594 22.8504ZM25.6326 20.1951C25.6326 20.0455 25.5949 19.9333 25.5573 19.8585C25.5197 19.7837 25.4444 19.7089 25.3692 19.6715C25.2939 19.6341 25.2186 19.5967 25.1434 19.5593C25.0681 19.5219 24.9552 19.5219 24.88 19.5219H24.165V20.9431H24.88C24.9552 20.9431 25.0681 20.9431 25.1434 20.9057C25.2186 20.9057 25.3315 20.8683 25.4068 20.7935C25.482 20.7561 25.5573 20.6813 25.5949 20.5691C25.6326 20.4943 25.6326 20.3447 25.6326 20.1951Z" fill="white"/>
<path d="M30.4874 21.0177C30.4874 21.2795 30.4498 21.5413 30.4122 21.7656C30.3746 21.99 30.2993 22.2144 30.1864 22.364C30.0735 22.551 29.923 22.6632 29.6972 22.7754C29.5091 22.8876 29.2456 22.925 28.907 22.925H27.8157C27.7781 22.925 27.7404 22.925 27.7028 22.8876C27.7028 22.8876 27.6652 22.8502 27.6652 22.8128V19.1851C27.6652 19.1104 27.7028 19.1104 27.7781 19.1104H28.8693C29.1704 19.1104 29.4338 19.1478 29.6219 19.2599C29.8101 19.3721 29.9982 19.4843 30.1111 19.6713C30.224 19.8583 30.2993 20.0453 30.3369 20.2697C30.4498 20.5315 30.4874 20.7559 30.4874 21.0177ZM29.9982 21.0925C29.9982 20.7559 29.9606 20.4941 29.923 20.3071C29.8477 20.1201 29.7725 19.9331 29.6972 19.8209C29.5843 19.7087 29.4714 19.6339 29.3585 19.5965C29.2456 19.5591 29.0951 19.5217 28.9446 19.5217H28.192V22.5136H28.907C29.0575 22.5136 29.1704 22.5136 29.3209 22.4762C29.4714 22.4388 29.5843 22.364 29.6972 22.2892C29.8101 22.177 29.8854 22.0274 29.9606 21.8404C29.9606 21.6535 29.9982 21.3917 29.9982 21.0925Z" fill="white"/>
<path d="M32.519 22.9624H32.2556C32.1803 22.9624 32.1427 22.925 32.1427 22.8502V19.2225C32.1427 19.1851 32.1427 19.1478 32.1803 19.1478C32.1803 19.1478 32.218 19.1104 32.2556 19.1104H32.519C32.5566 19.1104 32.5566 19.1104 32.5943 19.1478C32.5943 19.1478 32.6319 19.1851 32.6319 19.2225V22.8502C32.6319 22.925 32.5943 22.9624 32.519 22.9624Z" fill="white"/>
<path d="M34.5891 22.8504C34.5891 22.8878 34.5515 22.9252 34.5515 22.9252C34.5138 22.9252 34.5138 22.9252 34.4762 22.9252H34.1752C34.1375 22.9252 34.0999 22.8878 34.1375 22.8504L35.3417 19.2227C35.3417 19.1479 35.3793 19.1479 35.4546 19.1479H35.7933C35.8309 19.1479 35.8685 19.1479 35.8685 19.1853C35.8685 19.1853 35.9062 19.2227 35.9062 19.2601L37.1103 22.9252C37.1103 22.9626 37.1103 23 37.0727 23H36.734C36.6964 23 36.6964 23 36.6588 23C36.6588 23 36.6211 22.9626 36.6211 22.9252L36.3201 21.9902H34.8901L34.5891 22.8504ZM35.9062 20.5691L35.6428 19.6341L35.3793 20.5691L35.0783 21.5415H36.2448L35.9062 20.5691Z" fill="white"/>
<path d="M43.3572 22.8504C43.3572 22.8878 43.3572 22.8878 43.3572 22.9252C43.3572 22.9626 43.3196 22.9626 43.3196 22.9626H42.9809C42.9433 22.9626 42.9433 22.9626 42.9057 22.9626C42.868 22.9626 42.868 22.9252 42.868 22.8878L42.1154 21.3545H41.3628V22.8504C41.3628 22.9252 41.3252 22.9626 41.2499 22.9626H41.0241C40.9489 22.9626 40.9113 22.9252 40.9113 22.8504V19.2227C40.9113 19.1479 40.9489 19.1479 41.0241 19.1479H42.1907C42.3412 19.1479 42.4917 19.1853 42.6046 19.2227C42.7551 19.2601 42.868 19.3349 42.9809 19.4097C43.0938 19.4845 43.1691 19.5967 43.2443 19.7463C43.3196 19.8959 43.3196 20.0455 43.3196 20.2325C43.3196 20.3447 43.3196 20.4569 43.282 20.5691C43.2443 20.6813 43.2067 20.7935 43.1691 20.8683C43.0938 20.9805 43.0186 21.0553 42.9433 21.1301C42.8304 21.2049 42.7175 21.2797 42.6046 21.3171L43.3572 22.8504ZM42.8304 20.1951C42.8304 20.0455 42.7928 19.9333 42.7551 19.8585C42.7175 19.7837 42.6423 19.7089 42.567 19.6715C42.4917 19.6341 42.4165 19.5967 42.3412 19.5593C42.266 19.5219 42.1531 19.5219 42.0778 19.5219H41.3628V20.9431H42.0778C42.1531 20.9431 42.266 20.9431 42.3412 20.9057C42.4165 20.9057 42.5294 20.8683 42.6046 20.7935C42.6799 20.7561 42.7551 20.6813 42.7928 20.5691C42.8304 20.4943 42.8304 20.3447 42.8304 20.1951Z" fill="white"/>
<path d="M47.1197 22.925C47.1197 22.925 47.0821 22.925 47.0445 22.925H45.0124C44.9372 22.925 44.8995 22.8876 44.8995 22.8502V19.2225C44.8995 19.1478 44.9372 19.1104 45.0124 19.1104H47.0068C47.0821 19.1104 47.1197 19.1477 47.1197 19.1851V19.4469C47.1197 19.5217 47.0821 19.5591 47.0068 19.5591H45.3511V20.7933H46.8187C46.894 20.7933 46.9316 20.8307 46.9316 20.8681V21.0925C46.9316 21.1673 46.894 21.1673 46.8187 21.1673H45.3511V22.551H47.0445C47.1197 22.551 47.1197 22.5884 47.1197 22.6632V22.8876C47.1574 22.8876 47.1197 22.925 47.1197 22.925Z" fill="white"/>
<path d="M51.1087 21.8776C51.1087 22.102 51.0711 22.2516 50.9958 22.4012C50.9206 22.5508 50.8453 22.663 50.6948 22.7378C50.5819 22.8126 50.4314 22.8874 50.2809 22.9248C50.1303 22.9622 49.9422 22.9996 49.7917 22.9996C49.7164 22.9996 49.6035 22.9996 49.5283 22.9996C49.4154 22.9996 49.3401 22.9996 49.2272 22.9622C49.1143 22.9622 49.0391 22.9248 48.9262 22.9248C48.8133 22.8874 48.738 22.8874 48.7004 22.85C48.6628 22.8126 48.6251 22.8126 48.6251 22.7752C48.6251 22.7378 48.6251 22.7378 48.6251 22.7004L48.6628 22.5508C48.6628 22.5134 48.7004 22.476 48.7756 22.476C48.8509 22.476 48.9638 22.5134 49.0391 22.5134C49.1519 22.5134 49.2272 22.5134 49.3401 22.5508C49.453 22.5508 49.5283 22.5508 49.6035 22.5508C49.6788 22.5508 49.754 22.5508 49.8293 22.5508C50.1303 22.5508 50.3561 22.5134 50.469 22.4012C50.5819 22.289 50.6948 22.1394 50.6948 21.9524C50.6948 21.8402 50.6948 21.728 50.6572 21.6159C50.6195 21.5411 50.5819 21.4663 50.5443 21.3915C50.469 21.3541 50.3938 21.2793 50.2809 21.2419C50.168 21.2045 50.0551 21.1671 49.9046 21.1671C49.7164 21.1297 49.5659 21.0923 49.4154 21.0549C49.2648 21.0175 49.1143 20.9427 49.0391 20.9053C48.9262 20.8305 48.8509 20.7557 48.7756 20.6061C48.7004 20.4939 48.6628 20.3443 48.6628 20.1573C48.6628 19.8207 48.7756 19.5215 48.9638 19.3345C49.1896 19.1476 49.4906 19.0728 49.8669 19.0728C49.9422 19.0728 49.9798 19.0728 50.0927 19.0728C50.168 19.0728 50.2809 19.0728 50.3561 19.1102C50.469 19.1102 50.5443 19.1476 50.6572 19.1476C50.7701 19.1849 50.8453 19.185 50.9206 19.2223C50.9582 19.2223 50.9958 19.2597 50.9958 19.2597C50.9958 19.2971 50.9958 19.2971 50.9958 19.3345L50.9582 19.4841C50.9582 19.5215 50.9582 19.5215 50.9206 19.5215C50.9206 19.5215 50.883 19.5589 50.8453 19.5215C50.7324 19.4841 50.5819 19.4841 50.3938 19.4841C50.2056 19.4841 50.0551 19.4467 49.8669 19.4467C49.7164 19.4467 49.6035 19.4467 49.4906 19.4841C49.3777 19.5215 49.3025 19.5589 49.2648 19.5963C49.1896 19.6337 49.152 19.7085 49.152 19.7833C49.1143 19.8581 49.1143 19.9703 49.1143 20.0451C49.1143 20.1573 49.1143 20.2695 49.152 20.3069C49.1896 20.3817 49.2272 20.4191 49.3025 20.4565C49.3777 20.4939 49.453 20.5313 49.5659 20.5687C49.6788 20.6061 49.7917 20.6061 49.9422 20.6435C50.0927 20.6809 50.2809 20.7183 50.4314 20.7557C50.5819 20.7931 50.6948 20.8679 50.8077 20.9427C50.9206 21.0175 50.9958 21.1297 51.0711 21.2419C51.1087 21.5037 51.1087 21.6906 51.1087 21.8776Z" fill="white"/>
<path d="M57.5059 20.2325C57.5059 20.3447 57.5059 20.4943 57.4683 20.6439C57.4306 20.7935 57.3554 20.9057 57.2801 21.0179C57.2048 21.1301 57.0543 21.2049 56.9038 21.2797C56.7533 21.3545 56.5651 21.3919 56.3393 21.3919H55.5867V22.8504C55.5867 22.9252 55.5491 22.9626 55.4738 22.9626H55.2104C55.1352 22.9626 55.0975 22.9252 55.0975 22.8504V19.2227C55.0975 19.1479 55.1352 19.1479 55.2104 19.1479H56.3017C56.4899 19.1479 56.6404 19.1853 56.7909 19.2227C56.9414 19.2601 57.0543 19.3349 57.1672 19.4471C57.2801 19.5219 57.3554 19.6715 57.4306 19.7837C57.4683 19.8959 57.5059 20.0455 57.5059 20.2325ZM57.0543 20.2325C57.0543 20.0081 56.9791 19.8211 56.8285 19.7089C56.678 19.5967 56.4899 19.5219 56.2641 19.5219H55.5491V20.9805H56.3017C56.4522 20.9805 56.5651 20.9431 56.678 20.9057C56.7909 20.8683 56.8662 20.7935 56.9038 20.7187C56.9414 20.6439 57.0167 20.5691 57.0167 20.4943C57.0543 20.4195 57.0543 20.3447 57.0543 20.2325Z" fill="white"/>
<path d="M58.9359 22.8504C58.9359 22.8878 58.8983 22.9252 58.8983 22.9252C58.8606 22.9252 58.8606 22.9252 58.823 22.9252H58.522C58.4843 22.9252 58.4467 22.8878 58.4843 22.8504L59.6885 19.2227C59.6885 19.1479 59.7261 19.1479 59.8014 19.1479H60.1401C60.1777 19.1479 60.2153 19.1479 60.2153 19.1853C60.2153 19.1853 60.253 19.2227 60.253 19.2601L61.4571 22.9252C61.4571 22.9626 61.4571 23 61.4195 23H61.0808C61.0432 23 61.0432 23 61.0056 23C61.0056 23 60.9679 22.9626 60.9679 22.9252L60.6669 21.9902H59.2369L58.9359 22.8504ZM60.253 20.5691L59.9896 19.6341L59.7261 20.5691L59.4251 21.5415H60.5916L60.253 20.5691Z" fill="white"/>
<path d="M65.3332 22.8504C65.3332 22.8878 65.3332 22.8878 65.3332 22.9252C65.3332 22.9626 65.2956 22.9626 65.2956 22.9626H64.9569C64.9193 22.9626 64.9193 22.9626 64.8817 22.9626C64.844 22.9626 64.844 22.9252 64.844 22.8878L64.0914 21.3545H63.3388V22.8504C63.3388 22.9252 63.3012 22.9626 63.2259 22.9626H62.9625C62.8872 22.9626 62.8496 22.9252 62.8496 22.8504V19.2227C62.8496 19.1479 62.8872 19.1479 62.9625 19.1479H64.129C64.2796 19.1479 64.4301 19.1853 64.543 19.2227C64.6935 19.2601 64.8064 19.3349 64.9193 19.4097C65.0322 19.4845 65.1074 19.5967 65.1827 19.7463C65.258 19.8959 65.258 20.0455 65.258 20.2325C65.258 20.3447 65.258 20.4569 65.2203 20.5691C65.1827 20.6813 65.1451 20.7935 65.1074 20.8683C65.0322 20.9805 64.9569 21.0553 64.8817 21.1301C64.7688 21.2049 64.6559 21.2797 64.543 21.3171L65.3332 22.8504ZM64.8064 20.1951C64.8064 20.0455 64.7688 19.9333 64.7311 19.8585C64.6935 19.7837 64.6182 19.7089 64.543 19.6715C64.4677 19.6341 64.3925 19.5967 64.3172 19.5593C64.2419 19.5219 64.129 19.5219 64.0538 19.5219H63.3388V20.9431H64.0538C64.129 20.9431 64.2419 20.9431 64.3172 20.9057C64.3925 20.9057 64.5054 20.8683 64.5806 20.7935C64.6559 20.7561 64.7311 20.6813 64.7688 20.5691C64.8064 20.4943 64.8064 20.3447 64.8064 20.1951Z" fill="white"/>
<path d="M68.0806 22.364L68.5322 20.9803L69.0966 19.2225C69.0966 19.1851 69.1342 19.1478 69.2095 19.1478H69.5105C69.5482 19.1478 69.5858 19.1851 69.5482 19.2225L68.344 22.8502C68.344 22.8876 68.3064 22.925 68.2311 22.925H67.9301C67.8924 22.925 67.8548 22.925 67.8548 22.925C67.8548 22.925 67.8172 22.8876 67.8172 22.8502L66.613 19.1851C66.5754 19.1104 66.613 19.1104 66.6506 19.1104H66.9517C66.9893 19.1104 67.0269 19.1104 67.0269 19.1104C67.0269 19.1104 67.0646 19.1477 67.0646 19.1851L67.629 20.9429L68.0806 22.364Z" fill="white"/>
<path d="M70.8651 22.8504C70.8651 22.8878 70.8275 22.9252 70.8275 22.9252C70.7898 22.9252 70.7898 22.9252 70.7522 22.9252H70.4512C70.4135 22.9252 70.3759 22.8878 70.4135 22.8504L71.6177 19.2227C71.6177 19.1479 71.6553 19.1479 71.7306 19.1479H72.0693C72.1069 19.1479 72.1445 19.1479 72.1445 19.1853C72.1445 19.1853 72.1822 19.2227 72.1822 19.2601L73.3863 22.9252C73.3863 22.9626 73.3863 23 73.3487 23H73.01C72.9724 23 72.9724 23 72.9348 23C72.9348 23 72.8971 22.9626 72.8971 22.9252L72.5961 21.9902H71.1661L70.8651 22.8504ZM72.1445 20.5691L71.8811 19.6341L71.6177 20.5691L71.3167 21.5415H72.4832L72.1445 20.5691Z" fill="white"/>
<path d="M77.0364 22.925C77.0364 22.925 76.9987 22.925 76.9611 22.925H74.9291C74.8538 22.925 74.8162 22.8876 74.8162 22.8502V19.2225C74.8162 19.1478 74.8538 19.1104 74.9291 19.1104H76.9235C76.9987 19.1104 77.0364 19.1477 77.0364 19.1851V19.4469C77.0364 19.5217 76.9987 19.5591 76.9235 19.5591H75.2677V20.7933H76.7353C76.8106 20.7933 76.8482 20.8307 76.8482 20.8681V21.0925C76.8482 21.1673 76.8106 21.1673 76.7353 21.1673H75.2677V22.551H76.9611C77.0364 22.551 77.0364 22.5884 77.0364 22.6632V22.8876C77.074 22.8876 77.074 22.925 77.0364 22.925Z" fill="white"/>
<path d="M82.4928 19.0728C82.568 19.0728 82.6057 19.0728 82.7186 19.0728C82.7938 19.0728 82.9067 19.0728 82.982 19.1102C83.0572 19.1476 83.1701 19.1476 83.283 19.1476C83.3959 19.1849 83.4712 19.185 83.5464 19.2223C83.584 19.2597 83.6217 19.2597 83.6217 19.2971C83.6217 19.3345 83.6217 19.3345 83.6217 19.3719L83.5841 19.5215C83.5841 19.5589 83.584 19.5589 83.5464 19.5589C83.5464 19.5589 83.5088 19.5963 83.4712 19.5589C83.3583 19.5215 83.2077 19.5215 83.0196 19.5215C82.8314 19.5215 82.6809 19.4841 82.4928 19.4841C82.267 19.4841 82.0788 19.5215 81.9659 19.5963C81.8531 19.6711 81.7402 19.7833 81.6649 19.9329C81.5896 20.0825 81.552 20.2321 81.5144 20.4191C81.4767 20.6061 81.4767 20.7931 81.4767 21.0175C81.4767 21.2045 81.4767 21.3915 81.5144 21.5785C81.552 21.7654 81.5896 21.915 81.6649 22.0646C81.7402 22.2142 81.8531 22.3264 81.9659 22.4012C82.0788 22.476 82.267 22.5134 82.4928 22.5134C82.6809 22.5134 82.8314 22.5134 83.0196 22.476C83.1701 22.476 83.3206 22.4386 83.4712 22.4386C83.5088 22.4386 83.5464 22.4386 83.5464 22.4386L83.5841 22.476L83.6217 22.6256C83.6217 22.663 83.6217 22.663 83.6217 22.7004C83.6217 22.7378 83.584 22.7378 83.5464 22.7378C83.4712 22.7752 83.3959 22.7752 83.283 22.8126C83.1701 22.85 83.0949 22.85 82.982 22.85C82.8691 22.85 82.7938 22.8874 82.7186 22.8874C82.6433 22.8874 82.568 22.8874 82.4928 22.8874C82.1917 22.8874 81.9283 22.85 81.7402 22.7378C81.552 22.6256 81.4015 22.476 81.2886 22.3264C81.1757 22.1394 81.1004 21.9524 81.0628 21.728C81.0252 21.5037 80.9875 21.2419 80.9875 21.0175C80.9875 20.7557 80.9875 20.5313 81.0252 20.2695C81.0628 20.0451 81.1381 19.8207 81.251 19.6337C81.3639 19.4467 81.5144 19.2971 81.7025 19.1849C81.9283 19.1476 82.1917 19.0728 82.4928 19.0728Z" fill="white"/>
<path d="M87.5351 22.8504C87.5351 22.8878 87.5351 22.8878 87.5351 22.9252C87.5351 22.9626 87.4975 22.9626 87.4975 22.9626H87.1588C87.1212 22.9626 87.1212 22.9626 87.0836 22.9626C87.0459 22.9626 87.0459 22.9252 87.0459 22.8878L86.2933 21.3545H85.5407V22.8504C85.5407 22.9252 85.5031 22.9626 85.4278 22.9626H85.1644C85.0891 22.9626 85.0515 22.9252 85.0515 22.8504V19.2227C85.0515 19.1479 85.0891 19.1479 85.1644 19.1479H86.3309C86.4815 19.1479 86.632 19.1853 86.7449 19.2227C86.8954 19.2601 87.0083 19.3349 87.1212 19.4097C87.2341 19.4845 87.3093 19.5967 87.3846 19.7463C87.4599 19.8959 87.4599 20.0455 87.4599 20.2325C87.4599 20.3447 87.4599 20.4569 87.4222 20.5691C87.3846 20.6813 87.347 20.7935 87.3093 20.8683C87.2341 20.9805 87.1588 21.0553 87.0836 21.1301C86.9707 21.2049 86.8578 21.2797 86.7449 21.3171L87.5351 22.8504ZM87.0083 20.1951C87.0083 20.0455 86.9707 19.9333 86.933 19.8585C86.8954 19.7837 86.8201 19.7089 86.7449 19.6715C86.6696 19.6341 86.5944 19.5967 86.5191 19.5593C86.4438 19.5219 86.3309 19.5219 86.2557 19.5219H85.5407V20.9431H86.2557C86.3309 20.9431 86.4438 20.9431 86.5191 20.9057C86.5944 20.9057 86.7073 20.8683 86.7825 20.7935C86.8578 20.7561 86.933 20.6813 86.9707 20.5691C86.9707 20.4943 87.0083 20.3447 87.0083 20.1951Z" fill="white"/>
<path d="M91.2982 22.925C91.2982 22.925 91.2606 22.925 91.2229 22.925H89.1909C89.1156 22.925 89.078 22.8876 89.078 22.8502V19.2225C89.078 19.1478 89.1156 19.1104 89.1909 19.1104H91.1853C91.2606 19.1104 91.2982 19.1477 91.2982 19.1851V19.4469C91.2982 19.5217 91.2606 19.5591 91.1853 19.5591H89.5296V20.7933H90.9972C91.0724 20.7933 91.11 20.8307 91.11 20.8681V21.0925C91.11 21.1673 91.0724 21.1673 90.9972 21.1673H89.5296V22.551H91.2229C91.2982 22.551 91.2982 22.5884 91.2982 22.6632V22.8876V22.925Z" fill="white"/>
<path d="M95.2873 21.8776C95.2873 22.102 95.2497 22.2516 95.1744 22.4012C95.0992 22.5508 95.0239 22.663 94.8734 22.7378C94.7229 22.8126 94.61 22.8874 94.4595 22.9248C94.3089 22.9622 94.1208 22.9996 93.9703 22.9996C93.895 22.9996 93.7821 22.9996 93.7068 22.9996C93.594 22.9996 93.5187 22.9996 93.4058 22.9622C93.2929 22.9622 93.2176 22.9248 93.1048 22.9248C92.9919 22.8874 92.9166 22.8874 92.879 22.85C92.8413 22.8126 92.8037 22.8126 92.8037 22.7752C92.8037 22.7378 92.8037 22.7378 92.8037 22.7004L92.8413 22.5508C92.8413 22.5134 92.879 22.476 92.9542 22.476C93.0295 22.476 93.1424 22.5134 93.2176 22.5134C93.2929 22.5134 93.4058 22.5134 93.5187 22.5508C93.6316 22.5508 93.7068 22.5508 93.7821 22.5508C93.8574 22.5508 93.9326 22.5508 94.0079 22.5508C94.3089 22.5508 94.5347 22.5134 94.6476 22.4012C94.7981 22.289 94.8734 22.1394 94.8734 21.9524C94.8734 21.8402 94.8734 21.728 94.8358 21.6159C94.7981 21.5411 94.7605 21.4663 94.7229 21.3915C94.6476 21.3541 94.5723 21.2793 94.4595 21.2419C94.3466 21.2045 94.2337 21.1671 94.0831 21.1671C93.895 21.1297 93.7445 21.0923 93.5939 21.0549C93.4434 21.0175 93.2929 20.9427 93.2176 20.9053C93.1048 20.8305 93.0295 20.7557 92.9542 20.6061C92.879 20.4939 92.8413 20.3443 92.8413 20.1573C92.8413 19.8207 92.9542 19.5215 93.1424 19.3345C93.3682 19.1476 93.6692 19.0728 94.0455 19.0728C94.1208 19.0728 94.1584 19.0728 94.2713 19.0728C94.3466 19.0728 94.4594 19.0728 94.5347 19.1102C94.6476 19.1102 94.7229 19.1476 94.8358 19.1476C94.9486 19.1849 95.0239 19.185 95.0992 19.2223C95.1368 19.2223 95.1744 19.2597 95.1744 19.2597C95.1744 19.2971 95.1744 19.2971 95.1744 19.3345L95.1368 19.4841C95.1368 19.5215 95.1368 19.5215 95.0992 19.5215C95.0992 19.5215 95.0615 19.5589 95.0239 19.5215C94.911 19.4841 94.7605 19.4841 94.5723 19.4841C94.3842 19.4841 94.2337 19.4467 94.0455 19.4467C93.895 19.4467 93.7821 19.4467 93.6692 19.4841C93.5563 19.5215 93.4811 19.5589 93.4434 19.5963C93.3682 19.6337 93.3305 19.7085 93.3305 19.7833C93.2929 19.8581 93.2929 19.9703 93.2929 20.0451C93.2929 20.1573 93.2929 20.2695 93.3305 20.3069C93.3682 20.3817 93.4058 20.4191 93.4811 20.4565C93.5563 20.4939 93.6316 20.5313 93.7445 20.5687C93.8574 20.6061 93.9703 20.6061 94.1208 20.6435C94.2713 20.6809 94.4594 20.7183 94.61 20.7557C94.7605 20.7931 94.8734 20.8679 94.9863 20.9427C95.0992 21.0175 95.1744 21.1297 95.2497 21.2419C95.2497 21.5037 95.2873 21.6906 95.2873 21.8776Z" fill="white"/>
<path d="M98.2596 19.0728C98.3349 19.0728 98.3725 19.0728 98.4854 19.0728C98.5607 19.0728 98.6735 19.0728 98.7488 19.1102C98.8617 19.1102 98.937 19.1476 99.0499 19.1476C99.1627 19.1849 99.238 19.185 99.3133 19.2223C99.3509 19.2597 99.3885 19.2597 99.3885 19.2971C99.3885 19.3345 99.3885 19.3345 99.3885 19.3719L99.3509 19.5215C99.3509 19.5589 99.3509 19.5589 99.3133 19.5589C99.3133 19.5589 99.2756 19.5963 99.238 19.5589C99.1251 19.5215 98.9746 19.5215 98.7864 19.5215C98.5983 19.5215 98.4478 19.4841 98.2596 19.4841C98.0338 19.4841 97.8457 19.5215 97.7328 19.5963C97.6199 19.6711 97.507 19.7833 97.4317 19.9329C97.3565 20.0825 97.3189 20.2321 97.2812 20.4191C97.2436 20.6061 97.2436 20.7931 97.2436 21.0175C97.2436 21.2045 97.2436 21.3915 97.2812 21.5785C97.3189 21.7654 97.3565 21.915 97.4317 22.0646C97.507 22.2142 97.6199 22.3264 97.7328 22.4012C97.8457 22.476 98.0338 22.5134 98.2596 22.5134C98.4478 22.5134 98.5983 22.5134 98.7864 22.476C98.937 22.476 99.0875 22.4386 99.238 22.4386C99.2756 22.4386 99.3133 22.4386 99.3133 22.4386L99.3509 22.476L99.3885 22.6256C99.3885 22.663 99.3885 22.663 99.3885 22.7004C99.3885 22.7378 99.3509 22.7378 99.3133 22.7378C99.238 22.7752 99.1627 22.7752 99.0499 22.8126C98.937 22.85 98.8617 22.85 98.7488 22.85C98.6359 22.85 98.5607 22.8874 98.4854 22.8874C98.4101 22.8874 98.3349 22.8874 98.2596 22.8874C97.9586 22.8874 97.6952 22.85 97.507 22.7378C97.3189 22.6256 97.1683 22.476 97.0554 22.3264C96.9425 22.1394 96.8673 21.9524 96.8297 21.728C96.792 21.5037 96.7544 21.2419 96.7544 21.0175C96.7544 20.7557 96.7544 20.5313 96.792 20.2695C96.8297 20.0451 96.9049 19.8207 97.0178 19.6337C97.1307 19.4467 97.2812 19.2971 97.4694 19.1849C97.6952 19.1476 97.9586 19.0728 98.2596 19.0728Z" fill="white"/>
<path d="M102.211 22.5884C102.512 22.5884 102.738 22.5136 102.888 22.364C103.039 22.2144 103.114 21.9526 103.114 21.6161V19.2599C103.114 19.2225 103.114 19.1851 103.151 19.1851C103.151 19.1851 103.189 19.1478 103.227 19.1478H103.49C103.528 19.1478 103.528 19.1477 103.565 19.1851C103.565 19.1851 103.603 19.2225 103.603 19.2599V21.5787C103.603 21.6908 103.603 21.803 103.603 21.9152C103.603 22.0274 103.565 22.1396 103.528 22.2518C103.415 22.5136 103.264 22.7006 103.039 22.8128C102.813 22.925 102.549 22.9998 102.286 22.9998C101.646 22.9998 101.195 22.738 101.044 22.2518C101.007 22.1396 100.969 22.0274 100.969 21.9152C100.969 21.803 100.931 21.6908 100.931 21.5413V19.2225C100.931 19.1851 100.931 19.1478 100.969 19.1478C100.969 19.1478 101.007 19.1104 101.044 19.1104H101.308C101.345 19.1104 101.345 19.1104 101.383 19.1478C101.383 19.1478 101.42 19.1851 101.42 19.2225V21.5787C101.42 21.9152 101.496 22.1396 101.646 22.3266C101.684 22.4762 101.91 22.5884 102.211 22.5884Z" fill="white"/>
<path d="M105.786 19.9333V22.8504C105.786 22.9252 105.748 22.9626 105.673 22.9626H105.447C105.372 22.9626 105.334 22.9252 105.334 22.8504V19.2227C105.334 19.1479 105.372 19.1479 105.41 19.1479H105.635C105.673 19.1479 105.711 19.1479 105.711 19.1853C105.711 19.1853 105.748 19.2227 105.748 19.2601L107.329 21.6537L107.63 22.1398V19.2601C107.63 19.2227 107.63 19.1853 107.667 19.1853C107.667 19.1853 107.705 19.1479 107.743 19.1479H107.968C108.006 19.1479 108.006 19.1479 108.044 19.1853C108.044 19.1853 108.081 19.2227 108.081 19.2601V22.8878C108.081 22.9626 108.044 22.9626 108.006 22.9626H107.78C107.743 22.9626 107.705 22.9626 107.705 22.9252C107.667 22.9252 107.667 22.8878 107.63 22.8504L106.087 20.4569L105.786 19.9333Z" fill="white"/>
<path d="M112.07 19.5217H111.092V22.8502C111.092 22.925 111.054 22.9624 111.016 22.9624H110.753C110.678 22.9624 110.64 22.925 110.64 22.8502V19.5217H109.662C109.586 19.5217 109.549 19.4843 109.549 19.4095V19.1851C109.549 19.1104 109.586 19.1104 109.662 19.1104H112.07C112.145 19.1104 112.183 19.1477 112.183 19.1851V19.4469C112.183 19.4843 112.145 19.5217 112.07 19.5217Z" fill="white"/>
</svg>
