<?xml version="1.0" encoding="utf-8"?>
<!-- Generator: Adobe Illustrator 21.0.0, SVG Export Plug-In . SVG Version: 6.00 Build 0)  -->
<svg version="1.1" id="Слой_1" xmlns="http://www.w3.org/2000/svg" xmlns:xlink="http://www.w3.org/1999/xlink" x="0px" y="0px"
	 viewBox="0 0 375 351" style="enable-background:new 0 0 375 351;" xml:space="preserve">
<style type="text/css">
	.st0{fill:#020202;}
</style>
<path class="st0" d="M258.6,14.1h1.2H406L405.8,351L-32,351l0-311.9l1.2-4.4h1.2l1.2-1h1.2l1.2-0.4l1.2-0.4h1.2l1.2-1.2h1.2l1.2-0.4
	l1.2-0.4h1.2l1.2,0.4h1.2l1.2,0.9l1.2,0.9h1.2l1.2-0.3h1.2l1.2,0.2l1.2,0.2H-5l1.2-1.2h1.2l1.2-0.2l1.2-0.2h1.2l1.2,0.6h1.2l1.2-0.4
	L6,31.2h1.2l1.2,1.4h1.2l1.2-0.3l1.2-0.3h1.2l1.2,0.8h1.2l1.2-0.2l1.2-0.2h1.2l1.2,0.8H22l1.2,0.3l1.2,0.3h1.2l1.2-2.9h1.2l1.2,0.4
	l1.2,0.4h1.2l1.2-0.7h1.2l1.2-1l1.2-1h1.2l1.2-0.6h1.2l1.2,0.7l1.2,0.7H44h1.2h1.2l1.2,0.1l1.2,0.1h1.2l1.2-0.2h1.2l1.2,0.6l1.2,0.6
	h1.2l1.2-1.4h1.2l1.2,1.1l1.2,1.1h1.2l1.2,0.5h1.2l1.2-1.8h1.2l1.2-0.8h1.2l1.2-1.1l1.2-1.1h1.2l1.2,3.5h1.2l1.2,0.1l1.2,0.1h1.2
	l1.2,2.5H82l1.2,0.8l1.2,0.8h1.2l1.2-0.2h1.2l1.2,0.7l1.2,0.7h1.2l1.2-0.4h1.2l1.2,1.2l1.2,1.2H98l1.2-6.6h1.2l1.2,1.5l1.2,1.5h1.2
	l1.2,0l1.2,0h1.2l1.2-0.7h1.2l1.2-1.3l1.2-1.3h1.2l1.2-0.1h1.2l1.2-0.9l1.2-0.9h1.2l1.2,1.8h1.2l1.2-0.2l1.2-0.2h1.2l1.2,2.9
	l1.2,0.7l1.2,0.7l1.2,0.2l1.2,0.2h1.2l1.2-3.5h1.2l1.2-3.3l1.2-3.3h1.2l1.2,3.2h1.2l1.2-0.2l1.2-0.2h1.2l1.2-4h1.2l1.2-0.2l1.2-0.2
	h1.2l1.2,1.2h1.2l1.2-16l1.2-0.2h1.2h1.2h1.2l1.2-2h1.2l1.2,0l1.2,0h1.2l1.2-0.3h1.2l1.2,0l1.2,0h1.2l1.2,0.7h1.2l1.2-1.2l1.2-1.2
	h1.2h1.2h1.2l1.2,1l1.2,1h1.2l1.2,0.5l1.2,0.4l1.2,0.4l1.2-0.4l1.2-0.4h1.2l1.2,0.5h1.2l1.2-0.4l1.2-0.4h1.2l1.2,1.1l1.2,1.1h1.2
	l1.2-0.1h1.2l1.2-1.1l1.2-1.1h1.2l1.2-1.5h1.2h1.2h1.2l1.2-0.5l1.2-0.5l1.2-2.9h1.2l1.2-0.6l1.2-0.6h1.2l1.2,0.5h1.2l1.2,0.5
	l1.2,0.5h1.2l1.2,0.9h1.2l1.2-0.2l1.2-0.2h1.2l1.2-0.2l1.2-0.2l1.2-0.2l1.2-0.5l1.2-0.5h1.2l1.2,0h1.2l1.2,0l1.2,0h1.2l1.2,0.6
	l1.2,0.6h1.2l1.2,6.7h1.2l1.2,2l1.2,2h1.2L258.6,14.1z"/>
</svg>
