<svg width="16" height="15" viewBox="0 0 16 15" fill="none" xmlns="http://www.w3.org/2000/svg">
<rect width="14" height="14.0001" fill="black" fill-opacity="0" transform="translate(1 1)"/>
<path d="M15 14L8 1L1 14H2.61538H15Z" fill="white" stroke="white" stroke-linecap="round" stroke-linejoin="round"/>
<path d="M8.57959 10.3298H7.5249L7.37549 5.89575H8.729L8.57959 10.3298ZM8.05225 11.0242C8.26611 11.0242 8.4375 11.0872 8.56641 11.2131C8.69824 11.3391 8.76416 11.5002 8.76416 11.6965C8.76416 11.8899 8.69824 12.0496 8.56641 12.1755C8.4375 12.3015 8.26611 12.3645 8.05225 12.3645C7.84131 12.3645 7.66992 12.3015 7.53809 12.1755C7.40918 12.0496 7.34473 11.8899 7.34473 11.6965C7.34473 11.5032 7.40918 11.3435 7.53809 11.2175C7.66992 11.0886 7.84131 11.0242 8.05225 11.0242Z" fill="#99CEFF"/>
</svg>
