<svg width="28" height="28" viewBox="0 0 28 28" fill="none" xmlns="http://www.w3.org/2000/svg">
<rect width="25.8327" height="25.8093" fill="black" fill-opacity="0" transform="translate(1.42505 0.731445)"/>
<rect x="1.42505" y="0.731445" width="25.8327" height="25.8093" rx="12.9046" stroke="#99CEFF" stroke-linecap="round"/>
<rect width="9.51731" height="12.2254" fill="black" fill-opacity="0" transform="translate(9.58057 8.20117)"/>
<rect width="9.51731" height="12.2254" fill="black" fill-opacity="0" transform="translate(9.58057 8.20117)"/>
<path d="M18.3769 14.276C17.9527 13.9793 17.3484 13.8606 17.3484 13.8606C17.3484 13.8606 17.8597 13.5853 18.0687 13.3103C18.2779 13.0351 18.3825 12.6088 18.3999 12.3876C18.4173 12.1663 18.4581 11.2385 17.6794 10.7044C17.0772 10.2912 16.387 10.1271 15.4602 10.0737V8.20117H14.2168V10.0516H13.2698V8.20117H12.0266V10.0516H9.58057V11.2506H10.2995C10.4955 11.2506 10.8441 11.2708 10.9923 11.4248C11.1404 11.5785 11.1666 11.6595 11.1666 11.9587L11.1666 16.7362C11.1666 16.8495 11.1434 16.9897 11.0387 17.0815C10.9343 17.1733 10.8297 17.1947 10.5798 17.1947H9.8362L9.58057 18.5814H12.0266V20.4266H13.2699V18.5814H14.2169V20.4266H15.4602V18.551C15.7816 18.5335 16.0813 18.5109 16.2561 18.4897C16.6106 18.4466 17.4123 18.3603 18.1619 17.8747C18.9113 17.389 19.0797 16.6283 19.0972 15.8622C19.1148 15.0961 18.8007 14.5727 18.3769 14.276ZM13.2698 11.3573C13.2698 11.3573 13.6648 11.325 14.0541 11.3302C14.4435 11.3356 14.7861 11.3464 15.2976 11.4921C15.8088 11.6379 16.1107 11.994 16.1225 12.4148C16.1341 12.8357 15.9363 13.1161 15.5879 13.2942C15.2394 13.4722 14.7574 13.5693 14.304 13.5854C13.8509 13.6016 13.2698 13.5854 13.2698 13.5854V11.3573ZM16.0527 16.8764C15.768 17.0222 15.1986 17.1516 14.6468 17.1893C14.0948 17.2271 13.2698 17.2109 13.2698 17.2109V14.7345C13.2698 14.7345 14.06 14.6968 14.6759 14.7345C15.2917 14.7724 15.8088 14.9179 16.0411 15.026C16.2734 15.1338 16.6803 15.3712 16.6803 15.9378C16.6803 16.5041 16.3372 16.7308 16.0527 16.8764Z" fill="#99CEFF"/>
</svg>
