<svg width="14" height="16" viewBox="0 0 14 16" fill="none" xmlns="http://www.w3.org/2000/svg">
<rect width="13.113" height="15.6558" fill="black" fill-opacity="0"/>
<path fill-rule="evenodd" clip-rule="evenodd" d="M7.68779 10.9077V13.4742H5.48228V10.9077C4.85213 10.5227 4.41103 9.81695 4.41103 8.98283C4.41103 7.76373 5.41926 6.73712 6.61654 6.73712C7.81382 6.73712 8.82205 7.76373 8.82205 8.98283C8.82205 9.75279 8.38095 10.5227 7.68779 10.9077ZM6.61654 1.09077C8.44397 1.09077 9.8933 2.63069 9.8933 4.42725H3.27676C3.27676 2.63069 4.78912 1.09077 6.61654 1.09077ZM12.0988 4.49142H11.0276C11.0276 1.98906 9.07411 0 6.61654 0C4.15897 0 2.20551 1.98906 2.20551 4.49142H1.07125C0.504117 4.49142 0 5.00472 0 5.58219V14.565C0 15.2067 0.504117 15.6558 1.07125 15.6558H12.0358C12.6659 15.6558 13.1071 15.1425 13.1071 14.565V5.58219C13.1701 5.00472 12.729 4.49142 12.0988 4.49142Z" fill="#99CEFF"/>
</svg>
