<svg width="14" height="18" viewBox="0 0 14 18" fill="none" xmlns="http://www.w3.org/2000/svg">
<rect width="13.7615" height="17.7533" fill="black" fill-opacity="0"/>
<path d="M12.7635 11.7655C12.7635 11.5554 12.711 11.3453 12.6059 11.1352C12.5534 7.40598 13.7615 5.83024 13.7615 5.83024C13.7615 5.83024 12.0282 5.88276 9.97971 6.98578C9.92719 6.93325 9.87463 6.88073 9.87463 6.82821C9.92715 5.30499 10.2423 3.78177 10.6625 2.67876C10.3999 2.83633 9.34939 3.25653 8.24637 4.09692C7.6686 2.7838 7.51104 1.41817 8.19386 3.20585e-06C3.04644 3.67673 2.56468e-05 7.82618 2.56468e-05 11.1352C2.56468e-05 13.7089 0.630309 17.7533 6.88074 17.7533C10.5575 17.7533 12.3958 16.3352 12.7635 13.6039L12.8686 13.7089C12.8686 13.6039 12.8685 13.4463 12.816 13.3413C12.816 12.7635 12.816 12.2908 12.7635 11.7655ZM9.71709 14.6544C9.29689 15.3372 9.13927 15.5473 6.51303 15.6523C3.93932 15.7049 3.46663 15.1796 2.99391 14.2867C1.62826 11.7655 3.36158 10.1898 3.25653 10.3999C3.15148 10.5575 2.62622 12.1857 5.1474 13.4988C3.93934 11.9756 6.14537 10.1373 6.98577 9.29687C6.98577 11.4504 7.87873 13.4988 7.87873 13.4988C7.87873 13.4988 9.29688 12.6584 10.2948 9.66454C10.8201 11.9756 10.8726 12.6584 9.71709 14.6544Z" fill="white"/>
</svg>
