<svg width="28" height="28" viewBox="0 0 28 28" fill="none" xmlns="http://www.w3.org/2000/svg">
<rect width="25.8327" height="25.8093" fill="black" fill-opacity="0" transform="translate(1.42505 0.731445)"/>
<rect x="1.42505" y="0.731445" width="25.8327" height="25.8093" rx="12.9046" stroke="#99CEFF" stroke-linecap="round"/>
<rect width="8.15769" height="14.263" fill="black" fill-opacity="0" transform="translate(10.2612 6.16626)"/>
<rect width="8.15769" height="14.263" fill="black" fill-opacity="0" transform="translate(10.2612 6.16626)"/>
<rect width="8.15769" height="14.263" fill="black" fill-opacity="0" transform="translate(10.2612 6.16626)"/>
<path d="M14.2114 16.0151V11.625L10.2612 13.5033L14.2114 16.0151ZM14.2114 11.3232V6.16839L10.3885 13.1409L14.2114 11.3232ZM14.466 6.16626V11.3232L18.3426 13.1666L14.466 6.16626ZM14.466 11.625V16.0152L18.4189 13.5046L14.466 11.625ZM14.2114 20.4293V16.8982L10.2878 14.4045L14.2114 20.4293ZM14.466 20.4293L18.3896 14.4045L14.466 16.8982V20.4293Z" fill="#99CEFF"/>
</svg>
