<?xml version="1.0" encoding="utf-8"?>
<!-- Generator: Adobe Illustrator 21.0.0, SVG Export Plug-In . SVG Version: 6.00 Build 0)  -->
<svg version="1.1" id="Слой_1" xmlns="http://www.w3.org/2000/svg" xmlns:xlink="http://www.w3.org/1999/xlink" x="0px" y="0px"
	 viewBox="0 0 83.9 49.4" style="enable-background:new 0 0 83.9 49.4;" xml:space="preserve">
<style type="text/css">
	.st0{fill-opacity:0;}
	.st1{fill:none;stroke:#99CEFF;stroke-width:2;stroke-linecap:round;stroke-miterlimit:6.4066;}
	.st2{fill:#99CEFF;}
	.st3{opacity:0.3;}
	.st4{fill:none;stroke:#FFFFFF;stroke-width:2;}
	.st5{fill:#FFFFFF;}
</style>
<g>
	<rect x="68.9" y="35.9" class="st0" width="14" height="14"/>
	<path class="st1" d="M82.9,39.3l-1.1,2.6l-3-0.7"/>
	<path class="st2" d="M81.6,45.9c0.2-0.4,0-0.8-0.3-1c-0.4-0.2-0.8,0-1,0.3L81.6,45.9z M71.1,44.2c-0.7-2.7,0.9-5.4,3.5-6.1
		l-0.4-1.4c-3.4,0.9-5.5,4.5-4.6,7.9L71.1,44.2z M74.6,38.1c2.7-0.7,5.4,0.9,6.1,3.5l1.4-0.4c-0.9-3.4-4.5-5.5-7.9-4.6L74.6,38.1z
		 M77.1,47.7c-2.7,0.7-5.4-0.9-6.1-3.5l-1.4,0.4c0.9,3.4,4.5,5.5,7.9,4.6L77.1,47.7z M80.3,45.2c-0.6,1.2-1.7,2.1-3.1,2.5l0.4,1.4
		c1.8-0.5,3.3-1.7,4.1-3.3L80.3,45.2z"/>
</g>
<g class="st3">
	<rect x="3" y="4.1" class="st0" width="77.7" height="41.3"/>
	<path class="st4" d="M9.5,39.6l23.7-23.8"/>
	<ellipse class="st5" cx="10.1" cy="38.3" rx="7.1" ry="7.1"/>
	<ellipse class="st5" cx="32.4" cy="17" rx="7.1" ry="7.1"/>
	<path class="st4" d="M31.1,15.9l23.1,21.7"/>
	<ellipse class="st5" cx="53.6" cy="38.2" rx="7.1" ry="7.1"/>
	<path class="st4" d="M74.6,11.1L54.2,37.6"/>
	<ellipse class="st5" cx="73.7" cy="11.1" rx="7.1" ry="7.1"/>
</g>
</svg>
