<svg width="15" height="15" viewBox="0 0 15 15" fill="none" xmlns="http://www.w3.org/2000/svg">
<path d="M12.9691 1.32125C11.4327 -0.215157 8.99252 -0.215157 7.45611 1.32125C6.37158 2.40578 6.05526 3.98738 6.55234 5.34303L0.768205 11.1272L0 13.477L2.3498 14.2452L3.07282 13.477L5.33225 12.7088V11.1272L6.19083 10.359L7.00422 11.1272L8.58582 9.54557L7.81762 8.77736L8.90214 7.73802C10.2578 8.2351 11.8394 7.91878 12.9691 6.83425C14.4603 5.29784 14.4603 2.85766 12.9691 1.32125ZM11.4779 3.76143C11.2068 4.03257 10.7549 4.03257 10.4837 3.76143C10.2126 3.4903 10.2126 3.03842 10.4837 2.76729C10.7549 2.49615 11.2068 2.49615 11.4779 2.76729C11.749 3.08361 11.749 3.4903 11.4779 3.76143Z" fill="#99CEFF"/>
</svg>
