<svg width="16" height="16" viewBox="0 0 16 16" fill="none" xmlns="http://www.w3.org/2000/svg">
<path d="M12.0925 8.3718C12.0925 8.32528 12.0925 8.32528 12.0925 8.3718C12.139 8.32528 12.139 8.27877 12.139 8.27877C12.139 8.27877 12.139 8.27878 12.139 8.23227V7.76715C12.139 7.76715 12.139 7.76716 12.139 7.72065V7.67412C12.139 7.67412 12.139 7.62762 12.0925 7.62762C12.0925 7.62762 12.0925 7.58109 12.046 7.58109L8.83667 4.37181C8.5576 4.09274 8.13899 4.09274 7.85992 4.37181C7.58085 4.65088 7.58085 5.06947 7.85992 5.34854L9.85992 7.34854H3.58085C3.34829 7.34854 3.16225 7.48809 3.02271 7.62762C2.92969 7.72065 2.92969 7.86017 2.92969 7.99971C2.92969 8.18576 3.02271 8.3718 3.11573 8.46482C3.25527 8.60436 3.3948 8.65088 3.58085 8.65088H9.85992L7.85992 10.6509C7.58085 10.9299 7.58085 11.3485 7.85992 11.6276C7.99945 11.7671 8.1855 11.8137 8.32504 11.8137C8.51108 11.8137 8.65062 11.7671 8.79015 11.6276L11.9529 8.46482C12.046 8.41831 12.046 8.41831 12.0925 8.3718Z" fill="url(#paint0_linear)"/>
<path d="M8 0C3.58139 0 0 3.5814 0 8C0 12.4186 3.58139 16 8 16C12.4186 16 16 12.4186 16 8C15.9535 3.5814 12.3721 0 8 0ZM8 14.7907C4.23256 14.7907 1.16279 11.7209 1.16279 8C1.16279 4.23256 4.23256 1.20932 8 1.20932C11.7674 1.20932 14.7907 4.27907 14.7907 8C14.7907 11.7209 11.7674 14.7907 8 14.7907Z" fill="url(#paint1_linear)"/>
<defs>
<linearGradient id="paint0_linear" x1="4" y1="2" x2="16" y2="16" gradientUnits="userSpaceOnUse">
<stop stop-color="#BCDDFD"/>
<stop offset="1" stop-color="#2F7BC2"/>
</linearGradient>
<linearGradient id="paint1_linear" x1="4" y1="2" x2="16" y2="16" gradientUnits="userSpaceOnUse">
<stop stop-color="#BCDDFD"/>
<stop offset="1" stop-color="#2F7BC2"/>
</linearGradient>
</defs>
</svg>
