<svg width="15" height="10" viewBox="0 0 15 10" fill="none" xmlns="http://www.w3.org/2000/svg">
<rect width="14.9999" height="9.5405" fill="black" fill-opacity="0"/>
<rect width="14.9999" height="9.5405" fill="black" fill-opacity="0"/>
<path d="M7.47899 6.03234L14.2017 0.0427825C14.1597 0 14.1176 0 14.0756 0H0.924366C0.924366 0 0.882349 0 0.840332 0L7.47899 6.03234Z" fill="#99CEFF"/>
<path d="M14.9999 0.941324C14.9999 0.812976 14.9579 0.727411 14.9158 0.641846L10.21 4.87732L14.8738 9.02723C14.9579 8.89888 14.9999 8.72775 14.9999 8.5994V0.941324Z" fill="#99CEFF"/>
<path d="M0.0840336 0.598877C0.0420168 0.684442 0 0.81279 0 0.941137V8.55643C0 8.68478 0.0420168 8.81313 0.0840336 8.94147L4.78992 4.83435L0.0840336 0.598877Z" fill="#99CEFF"/>
<path d="M9.4958 5.51904L7.47899 7.31591L5.46218 5.51904L0.840332 9.5406H0.882349H13.9496L9.4958 5.51904Z" fill="#99CEFF"/>
</svg>
