<svg width="28" height="28" viewBox="0 0 28 28" fill="none" xmlns="http://www.w3.org/2000/svg">
<rect width="25.8327" height="25.8093" fill="black" fill-opacity="0" transform="translate(1.42505 0.731445)"/>
<path d="M20.1627 12.3464L20.4592 10.8291C20.4592 10.7279 20.4098 10.6521 20.3109 10.6521H18.3588L18.6553 9.03357C18.68 8.9577 18.6059 8.88184 18.5318 8.88184H16.6785C16.5302 8.88184 16.382 9.00828 16.3573 9.16002L15.6901 12.6246H13.392L14.0839 9.03357C14.0839 8.9577 14.0098 8.88184 13.9109 8.88184H12.0576C11.9094 8.88184 11.7611 9.00828 11.7364 9.16002L11.4399 10.6521H9.61129C9.46303 10.6521 9.31476 10.7785 9.29005 10.9302L8.99353 12.4476C8.96882 12.5487 9.04295 12.6246 9.11708 12.6246H11.0692L10.6986 14.5972H8.84527C8.697 14.5972 8.54874 14.7236 8.52403 14.8753L8.2275 16.3927C8.20279 16.4938 8.27692 16.5697 8.35106 16.5697H10.3032L10.0067 18.1882C9.98195 18.2894 10.0561 18.3652 10.1302 18.3652H11.9835C12.1318 18.3652 12.28 18.2388 12.3047 18.087L12.9719 14.6224H15.27L14.5781 18.2135C14.5534 18.3146 14.6275 18.3905 14.7017 18.3905H16.6291C16.7773 18.3905 16.9256 18.2641 16.9503 18.1123L17.2468 16.6203H19.1001C19.2484 16.6203 19.3966 16.4938 19.4214 16.3421L19.7179 14.8248C19.7426 14.7236 19.6685 14.6477 19.5943 14.6477H17.6422L18.0129 12.6752H19.8661C19.9897 12.6246 20.138 12.4982 20.1627 12.3464Z" fill="#99CEFF"/>
<rect x="1.42505" y="0.731445" width="25.8327" height="25.8093" rx="12.9046" stroke="#99CEFF" stroke-linecap="round"/>
</svg>
