<svg width="114" height="23" fill="none" xmlns="http://www.w3.org/2000/svg"><path d="M0 0h114v23H0z"/><path d="M0 0h114v16.306H0z"/><path d="M18.183 7.18l.451-2.244a.204.204 0 0 0-.188-.261h-3.01l.451-2.394a.204.204 0 0 0-.188-.262h-2.822a.52.52 0 0 0-.49.412l-1.015 5.123h-3.5l1.054-5.31a.204.204 0 0 0-.188-.262H5.915a.52.52 0 0 0-.489.411L4.9 4.675H2.115a.52.52 0 0 0-.49.411L1.174 7.33a.204.204 0 0 0 .188.262h2.973l-.565 2.917H.948a.52.52 0 0 0-.49.411l-.45 2.244a.204.204 0 0 0 .188.262h2.972l-.451 2.393c0 .15.075.262.226.262h2.822a.52.52 0 0 0 .489-.411l1.016-5.124h3.5l-1.054 5.31c0 .113.075.225.226.225h2.86a.52.52 0 0 0 .489-.411l.451-2.207h2.823a.52.52 0 0 0 .489-.411l.452-2.244a.204.204 0 0 0-.189-.262h-2.972l.564-2.917h2.822c.188-.037.414-.224.452-.449z" fill="#fff"/><path d="M19.78 2.057h51.415V16.23H19.78z"/><path d="M36.773 15.932c-.076.112-.189.15-.414.15h-2.522c-.338 0-.489-.15-.413-.487l1.166-5.984c.15-.71.113-1.159-.038-1.383-.15-.225-.451-.337-.903-.337-.263 0-.64.075-1.053.225-.414.15-.79.299-1.13.448l-.187 1.047-1.167 5.984a1.325 1.325 0 0 1-.15.337.604.604 0 0 1-.414.15h-2.522c-.338 0-.451-.15-.376-.487l1.167-6.058c.113-.636.113-1.085-.038-1.31-.15-.224-.452-.336-.866-.336-.263 0-.64.075-1.053.187-.414.15-.79.3-1.167.449l-1.392 7.068c-.038.112-.075.225-.15.337-.076.112-.226.15-.452.15h-2.521c-.339 0-.452-.15-.377-.487l1.995-10.247c.037-.15.075-.262.188-.374a.604.604 0 0 1 .414-.15h2.521c.226 0 .339.038.376.15a.516.516 0 0 1 0 .337l-.075.56.038.038a7.324 7.324 0 0 1 1.768-.935 5.3 5.3 0 0 1 1.807-.337c.677 0 1.28.113 1.73.374.49.262.79.636.904 1.16a10 10 0 0 1 2.07-1.122 5.48 5.48 0 0 1 2.107-.449c.828 0 1.43.15 1.806.411.414.262.677.599.79 1.048.15.411.188.897.113 1.42-.038.524-.15 1.048-.226 1.609l-1.28 6.507c.039.112 0 .225-.074.337zm2.22-3.478c0-.487.038-.973.113-1.46.075-.485.188-.971.3-1.458.151-.56.377-1.159.64-1.72a5.533 5.533 0 0 1 1.13-1.57c.489-.487 1.09-.86 1.843-1.123.715-.299 1.656-.448 2.747-.448.527 0 1.054.074 1.543.187.49.112.941.299 1.317.56.377.262.678.562.903.973.226.374.34.823.34 1.346 0 .898-.227 1.608-.716 2.17-.49.56-1.091.972-1.806 1.27-.715.3-1.505.487-2.333.6-.828.111-1.844.186-2.56.224-.074.15-.112.598-.112.822 0 .674 1.167.748 1.392.786.866.112 2.634-.112 3.914-.337a.774.774 0 0 1 .414 0c.113.038.15.15.15.374v1.085c0 .299-.037.523-.15.636a1.567 1.567 0 0 1-.64.373c-.263.075-.564.188-.903.225a8.924 8.924 0 0 1-1.054.15c-.376.037-.715.074-1.09.074a9.8 9.8 0 0 1-1.017.038c-.64 0-1.242-.075-1.806-.187a4.37 4.37 0 0 1-1.392-.674c-.377-.299-.678-.71-.904-1.196a5.52 5.52 0 0 1-.263-1.72zm7.601-4.301c0-.3-.113-.524-.3-.711-.189-.187-.49-.3-.866-.3-.377 0-.866.113-1.13.3a2.632 2.632 0 0 0-.677.748 4.15 4.15 0 0 0-.451 1.01c-.113.374-.113.336-.188.673 1.881.075 3.085-.524 3.311-.785.188-.225.301-.524.301-.935zm11.252 6.881c0 .15-.037.337-.15.449a.716.716 0 0 1-.414.262c-.301.075-.602.15-.941.224-.339.075-.64.112-.94.15a7.391 7.391 0 0 1-.866.075c-.264 0-.49.037-.678.037-.715 0-1.28-.112-1.693-.3-.414-.186-.715-.486-.866-.822-.188-.337-.263-.71-.263-1.16 0-.448.038-.897.15-1.346l1.017-5.086h-1.016c-.189 0-.301-.037-.34-.112a.578.578 0 0 1-.037-.374l.339-1.72c.038-.15.075-.3.188-.374.075-.075.226-.113.414-.113h1.016l.414-2.169c.113-.449.301-.598.677-.598h2.446c.377 0 .301.224.301.411l-.451 2.356h2.333c.226 0 .339.038.376.113.038.074.038.187 0 .374l-.339 1.72c-.037.15-.075.3-.15.374-.075.075-.226.112-.414.112h-2.37l-.79 4.226c-.038.224-.076.412-.076.561 0 .15.038.262.075.374.075.112.188.187.376.224.189.038.414.075.753.075.188 0 .414 0 .715-.037.301 0 .602-.037.865-.075.151 0 .264 0 .34.037.074.038.112.187.112.45l-.113 1.682zm11.364.524c0 .112-.075.224-.15.337-.076.112-.226.15-.452.15h-2.597c-.188 0-.3-.038-.338-.113-.038-.075-.038-.187 0-.337l.113-.56-.038-.038c-.64.411-1.28.748-1.806.935-.565.187-1.13.3-1.656.3-1.129 0-1.92-.3-2.333-.861-.414-.598-.64-1.384-.64-2.356 0-.374.038-.748.075-1.16.038-.41.113-.822.189-1.271.15-.898.376-1.683.64-2.394.263-.71.564-1.346.978-1.832a4.493 4.493 0 0 1 1.467-1.197c.602-.299 1.317-.411 2.183-.411.414 0 .865.075 1.392.187.527.15.979.336 1.43.56l.076-.373c.037-.15.075-.262.15-.3a.755.755 0 0 1 .339-.074h2.558c.226 0 .34.037.377.15.037.074.037.224 0 .373L69.21 15.558zm-3.763-7.929c-.301 0-.64.038-.865.15-.226.112-.414.224-.603.449-.15.187-.413.785-.526 1.122-.113.336-.226.71-.302 1.16-.112.598-.188 1.196-.188 1.533 0 .486.076.822.226.972.15.15.414.224.753.224.338 0 .865-.112 1.317-.224a5.353 5.353 0 0 0 1.016-.449l.903-4.525a3.63 3.63 0 0 0-1.731-.412z" fill="#fff"/><path d="M72.123 0H114v16.306H72.123z"/><path d="M81.365 15.67c-.038.262-.188.374-.49.374h-.978c-.263 0-.376-.112-.3-.374l1.316-6.732c.076-.523.15-.935.15-1.271 0-.337-.037-.599-.15-.823a.888.888 0 0 0-.489-.411 2.857 2.857 0 0 0-.865-.113c-.264 0-.602.038-1.016.15-.414.112-.79.224-1.167.374-.376.15-.752.262-1.129.411-.338.15-.602.262-.79.337l-1.58 8.078c-.038.262-.189.374-.49.374h-.94c-.264 0-.377-.112-.302-.374L75.194.374c.075-.262.225-.374.451-.374h.94c.264 0 .377.112.34.374l-1.13 5.797h.038c.226-.112.49-.262.828-.449.339-.15.677-.337 1.091-.449.377-.15.79-.262 1.205-.374.414-.112.827-.15 1.241-.15.753 0 1.317.113 1.694.337.414.225.677.524.828.86.15.374.225.823.188 1.347a14.872 14.872 0 0 1-.226 1.683l-1.317 6.694zm10.649 0c-.038.262-.188.374-.451.374h-.941c-.264 0-.377-.112-.339-.374l.15-.86a28.47 28.47 0 0 1-1.88 1.01c-.678.299-1.468.448-2.334.448-1.054 0-1.806-.261-2.258-.785-.451-.524-.677-1.309-.677-2.319 0-.374.037-.785.075-1.196.038-.45.113-.898.226-1.31.188-.934.414-1.794.677-2.505.264-.71.602-1.346 1.016-1.833.414-.486.941-.897 1.543-1.122.602-.261 1.355-.374 2.258-.374.414 0 .903.075 1.468.225a7.53 7.53 0 0 1 1.655.636l.038-.038.075-.336c.038-.15.075-.225.15-.262.076-.038.189-.038.34-.038h.865c.15 0 .263.038.338.075.038.038.038.15.038.337L92.014 15.67zm0-8.639c-1.091-.486-2.145-.71-3.16-.71-.49 0-.942.074-1.28.224-.377.15-.678.374-.941.71-.263.337-.49.786-.677 1.347a14.732 14.732 0 0 0-.527 2.057c-.076.486-.15.935-.226 1.309-.038.411-.075.71-.075.972 0 .71.15 1.16.414 1.384.263.224.677.336 1.204.336.263 0 .602-.037.978-.15a6.465 6.465 0 0 0 1.13-.336c.375-.15.752-.262 1.09-.411.34-.15.64-.262.828-.374l1.242-6.358zm11.139-.748a.34.34 0 0 1-.226.224c-.113.038-.264.038-.414.038-.452-.038-.941-.112-1.43-.15-.489-.037-.978-.075-1.468-.075a8.14 8.14 0 0 0-1.016.075c-.3.038-.602.15-.828.3a1.504 1.504 0 0 0-.526.56 1.992 1.992 0 0 0-.189.898c0 .262.076.486.189.636.112.15.263.299.451.411.188.112.414.187.678.262.263.075.489.112.752.187.226.037.565.112.941.224s.752.262 1.091.449c.339.187.64.486.903.823.226.336.377.785.377 1.346 0 .748-.151 1.384-.377 1.87-.263.486-.602.86-1.053 1.16-.452.299-.979.486-1.543.598a9.94 9.94 0 0 1-1.844.187c-.301 0-.602 0-.94-.038l-1.017-.112c-.339-.037-.64-.112-.903-.15a5.474 5.474 0 0 1-.715-.224c-.188-.112-.226-.262-.15-.486l.188-.486c.075-.15.15-.225.225-.262.076-.037.189-.037.34-.037.225.037.488.074.752.074.3.038.564.075.865.075.301.038.565.038.866.075.263 0 .489.037.677.037.414 0 .753-.037 1.129-.074.339-.075.64-.15.903-.3s.452-.336.602-.598c.151-.262.226-.598.226-1.01 0-.56-.188-.935-.565-1.16-.376-.223-.827-.373-1.392-.448a7.105 7.105 0 0 1-1.091-.224 5.912 5.912 0 0 1-1.129-.449 2.474 2.474 0 0 1-.866-.785c-.225-.337-.338-.748-.338-1.272 0-.673.113-1.234.376-1.683.263-.449.565-.823 1.016-1.122.414-.299.903-.486 1.468-.598a8.462 8.462 0 0 1 1.73-.187c.226 0 .49 0 .791.037.301 0 .64.038.978.075.339.037.64.112.941.187.301.075.565.15.753.224.113.038.15.113.188.187 0 .075 0 .187-.038.262l-.338.449zm9.295 9.387c-.038.262-.189.374-.49.374h-.978c-.263 0-.376-.112-.301-.374l1.317-6.732c.075-.523.151-.935.151-1.271 0-.337-.038-.599-.151-.823a.888.888 0 0 0-.489-.411 2.86 2.86 0 0 0-.866-.113 3.91 3.91 0 0 0-1.016.15c-.414.112-.79.224-1.166.374-.376.15-.753.262-1.129.411-.339.15-.602.262-.79.337l-1.543 8.078c-.038.262-.188.374-.489.374h-.941c-.264 0-.376-.112-.301-.374l3.01-15.296c.076-.262.226-.374.452-.374h.941c.263 0 .376.112.338.374l-1.129 5.797h.038c.226-.112.489-.262.828-.449.339-.15.677-.337 1.091-.449.376-.15.79-.262 1.204-.374.414-.112.828-.15 1.242-.15.753 0 1.317.113 1.693.337.414.225.678.524.828.86.151.374.226.823.188 1.347a14.681 14.681 0 0 1-.225 1.683l-1.317 6.694z" fill="#fff"/><path d="M2.227 19.073h109.956V23H2.227z"/><path d="M3.695 19.073h.226c.075 0 .188 0 .263.037.113 0 .188.038.301.038.113.037.188.037.263.074.038.038.076.038.076.075v.075l-.038.15c0 .037 0 .037-.038.037 0 0-.037.037-.075 0-.113-.038-.263-.038-.451-.038-.189 0-.34-.037-.527-.037-.226 0-.414.037-.527.112a.885.885 0 0 0-.301.337c-.075.15-.113.3-.15.486-.038.187-.038.374-.038.598 0 .188 0 .375.037.561.038.187.076.337.15.487.076.15.189.261.302.336.113.075.301.112.527.112.188 0 .338 0 .527-.037.15 0 .3-.037.451-.037h.075l.038.037.038.15v.074c0 .038-.038.038-.076.038-.075.037-.15.037-.263.075-.113.037-.188.037-.301.037-.113 0-.188.037-.263.037h-.226c-.301 0-.565-.037-.753-.15a1.6 1.6 0 0 1-.451-.41 1.646 1.646 0 0 1-.226-.599c-.038-.224-.038-.411-.038-.636 0-.261 0-.486.038-.748.037-.224.113-.449.226-.636a1.29 1.29 0 0 1 .451-.448 1.49 1.49 0 0 1 .753-.187zm5.381 1.907c0 .225 0 .45-.038.711-.037.224-.075.449-.188.636s-.263.374-.451.486c-.189.112-.49.187-.828.187a2.29 2.29 0 0 1-.565-.075c-.15-.075-.3-.15-.414-.224-.113-.113-.188-.225-.263-.337a1.816 1.816 0 0 1-.15-.411 1.86 1.86 0 0 1-.076-.449v-.823c0-.15.038-.299.075-.411a1.9 1.9 0 0 1 .15-.412c.076-.15.151-.261.264-.336a.744.744 0 0 1 .414-.224c.15-.075.339-.075.565-.075.338 0 .602.037.79.15.188.111.339.261.452.448.112.187.188.374.188.598.075.113.075.337.075.561zm-.452.038c0-.262 0-.486-.037-.673-.038-.187-.075-.374-.188-.487-.076-.15-.189-.224-.34-.299a1.098 1.098 0 0 0-.526-.112 1.05 1.05 0 0 0-.49.112 1.142 1.142 0 0 0-.3.3c-.075.149-.15.299-.15.486-.038.187-.038.411-.038.635 0 .225 0 .45.037.636.038.187.076.337.15.486.076.15.189.225.302.3.113.074.301.112.49.112.225 0 .375-.038.526-.113.15-.074.226-.186.339-.299.075-.15.15-.299.15-.486.075-.112.075-.336.075-.598zm2.596-1.085v2.917c0 .075-.038.113-.113.113h-.226c-.075 0-.112-.038-.112-.113v-3.627c0-.075.037-.075.075-.075h.226c.037 0 .075 0 .075.037 0 0 .037.038.037.075l1.581 2.394.301.486v-2.88c0-.037 0-.075.038-.075 0 0 .037-.037.075-.037h.226c.037 0 .037 0 .075.037 0 0 .038.038.038.075v3.628c0 .075-.038.075-.076.075h-.226c-.037 0-.075 0-.075-.038-.037 0-.037-.037-.075-.075l-1.543-2.393-.3-.524zm5.457-.86h.226c.075 0 .188 0 .263.037.113 0 .188.038.301.038.113.037.188.037.264.074.037.038.075.038.075.075v.075l-.038.15c0 .037 0 .037-.038.037 0 0-.037.037-.075 0-.113-.038-.263-.038-.451-.038-.189 0-.339-.037-.527-.037-.226 0-.414.037-.527.112a.884.884 0 0 0-.301.337c-.075.15-.113.3-.15.486-.038.187-.038.374-.038.598 0 .188 0 .375.037.561.038.187.076.337.151.487.075.15.188.261.301.336.113.075.301.112.527.112.188 0 .338 0 .527-.037.15 0 .3-.037.451-.037h.075l.038.037.038.15v.074c0 .038-.038.038-.076.038-.075.037-.15.037-.263.075-.113.037-.188.037-.301.037-.113 0-.188.037-.263.037h-.226c-.301 0-.565-.037-.753-.15a1.601 1.601 0 0 1-.451-.41 1.646 1.646 0 0 1-.226-.599 4.557 4.557 0 0 1-.075-.71c0-.262 0-.487.037-.748a1.83 1.83 0 0 1 .226-.636c.113-.187.263-.337.452-.45.225-.036.489-.111.79-.111zm5.381 1.907c0 .225 0 .45-.038.711-.037.224-.075.449-.188.636s-.263.374-.451.486c-.189.112-.49.187-.828.187-.226 0-.414-.038-.565-.075-.15-.075-.3-.15-.414-.224a2.053 2.053 0 0 1-.263-.337 1.812 1.812 0 0 1-.15-.411 1.86 1.86 0 0 1-.076-.449v-.823c0-.15.038-.299.075-.411.038-.15.076-.262.151-.412.075-.15.15-.261.263-.336a.745.745 0 0 1 .414-.224c.189-.038.339-.075.565-.075.338 0 .602.037.79.15.188.111.339.261.452.448.112.187.188.374.188.598.075.113.075.337.075.561zm-.452.038c0-.262 0-.486-.037-.673-.038-.187-.075-.374-.188-.487-.076-.15-.189-.224-.339-.299a1.098 1.098 0 0 0-.527-.112c-.188 0-.338.037-.489.112-.15.075-.226.187-.301.3-.075.149-.15.299-.15.486v.673c0 .224 0 .449.037.636.038.187.075.336.15.486.076.15.189.224.302.299.113.075.3.112.489.112.226 0 .376-.037.527-.112.15-.075.225-.187.338-.3.076-.149.15-.298.15-.485.038-.15.038-.374.038-.636zm4.554 1.832v.075c0 .038-.038.038-.038.038h-.414c-.038 0-.038-.038-.038-.075l-.752-1.534h-.753v1.496c0 .075-.038.113-.113.113h-.263c-.076 0-.113-.038-.113-.113v-3.627c0-.075.037-.075.113-.075h1.166c.15 0 .301.037.414.075.15.037.264.112.377.187.112.075.188.187.263.336.075.15.075.3.075.487 0 .112 0 .224-.037.336a2.567 2.567 0 0 1-.113.3 1.63 1.63 0 0 1-.226.261c-.113.075-.226.15-.339.187l.79 1.533zm-.527-2.655a.743.743 0 0 0-.076-.337.452.452 0 0 0-.188-.186l-.226-.113c-.075-.037-.188-.037-.263-.037h-.715v1.421h.715c.075 0 .188 0 .263-.037a.408.408 0 0 0 .264-.112.384.384 0 0 0 .188-.225c.038-.075.038-.224.038-.374zm4.854.823c0 .261-.037.523-.075.748-.037.224-.113.448-.226.598-.113.187-.263.3-.489.411-.188.113-.451.15-.79.15h-1.091c-.038 0-.076 0-.113-.037 0 0-.038-.038-.038-.075v-3.628c0-.075.038-.075.113-.075h1.091c.301 0 .565.038.753.15.188.112.376.224.49.411.112.187.187.374.225.599.113.262.15.486.15.748zm-.489.075c0-.337-.037-.599-.075-.786-.075-.187-.15-.374-.226-.486a.89.89 0 0 0-.338-.225 1.36 1.36 0 0 0-.414-.074h-.753v2.992h.715c.15 0 .263 0 .414-.038.15-.037.263-.112.376-.187.113-.112.188-.262.264-.449 0-.186.037-.448.037-.747zm2.521 1.869h-.263c-.076 0-.113-.037-.113-.112v-3.628c0-.037 0-.074.037-.074 0 0 .038-.038.076-.038h.263c.038 0 .038 0 .075.038 0 0 .038.037.038.075v3.627c0 .075-.038.112-.113.112zm2.071-.112c0 .038-.039.075-.039.075h-.375c-.038 0-.076-.037-.038-.075l1.204-3.627c0-.075.037-.075.113-.075h.338c.038 0 .075 0 .075.037 0 0 .038.038.038.075l1.204 3.665c0 .038 0 .075-.037.075h-.414s-.038-.037-.038-.075l-.3-.935h-1.43l-.302.86zm1.316-2.28l-.263-.936-.264.935-.3.973h1.166l-.339-.973zm7.451 2.28v.075c0 .038-.037.038-.037.038h-.414c-.038 0-.038-.038-.038-.075l-.753-1.534h-.752v1.496c0 .075-.038.113-.113.113h-.226c-.075 0-.113-.038-.113-.113v-3.627c0-.075.038-.075.113-.075h1.167c.15 0 .3.037.414.075.15.037.263.112.376.187.113.075.188.187.263.336.076.15.076.3.076.487 0 .112 0 .224-.038.336-.038.112-.075.225-.113.3a1.63 1.63 0 0 1-.226.261c-.113.075-.225.15-.338.187l.752 1.533zm-.527-2.655a.742.742 0 0 0-.075-.337.452.452 0 0 0-.188-.186l-.226-.113c-.075-.037-.188-.037-.263-.037h-.715v1.421h.715c.075 0 .188 0 .263-.037a.408.408 0 0 0 .264-.112.384.384 0 0 0 .188-.225c.037-.075.037-.224.037-.374zm4.29 2.73h-2.108c-.075 0-.112-.037-.112-.075v-3.628c0-.074.037-.112.112-.112h1.995c.075 0 .113.038.113.075v.262c0 .075-.038.112-.113.112H45.35v1.234h1.468c.075 0 .113.038.113.075v.225c0 .074-.038.074-.113.074H45.35v1.384h1.694c.075 0 .075.037.075.112v.225c.037 0 0 .037 0 .037zm3.989-1.047c0 .224-.038.374-.113.523-.075.15-.15.262-.301.337-.113.075-.264.15-.414.187-.15.037-.339.075-.49.075h-.263c-.113 0-.188 0-.3-.038-.114 0-.189-.037-.302-.037-.113-.038-.188-.038-.226-.075-.037-.037-.075-.037-.075-.075V22.7l.038-.15c0-.037.037-.074.113-.074.075 0 .188.037.263.037a.82.82 0 0 1 .301.038h.489c.301 0 .527-.038.64-.15.113-.112.226-.262.226-.449 0-.112 0-.224-.038-.336l-.113-.224c-.075-.038-.15-.113-.263-.15a1.12 1.12 0 0 0-.376-.075 9.935 9.935 0 0 1-.49-.112 1.935 1.935 0 0 1-.376-.15.695.695 0 0 1-.263-.299.794.794 0 0 1-.113-.449c0-.336.113-.636.3-.823.227-.186.528-.261.904-.261h.226c.075 0 .188 0 .263.037.113 0 .188.038.301.038.113.037.188.037.264.074.037 0 .075.038.075.038v.074l-.038.15c0 .037 0 .037-.037.037 0 0-.038.038-.076 0-.113-.037-.263-.037-.451-.037s-.339-.037-.527-.037c-.15 0-.264 0-.376.037a.615.615 0 0 0-.226.112.206.206 0 0 0-.113.187c-.038.075-.038.187-.038.262 0 .112 0 .224.038.262a.293.293 0 0 0 .15.15c.076.037.151.074.264.112.113.037.226.037.376.075.15.037.339.074.49.112.15.037.263.112.376.187.113.074.188.187.263.299.038.262.038.449.038.636zm6.397-1.645c0 .112 0 .261-.038.41-.037.15-.113.263-.188.375-.075.112-.226.187-.376.262a1.26 1.26 0 0 1-.565.112h-.752v1.458c0 .075-.038.113-.113.113h-.264c-.075 0-.113-.038-.113-.113v-3.627c0-.075.038-.075.113-.075h1.092c.188 0 .338.037.489.075.15.037.263.112.376.224.113.075.188.225.264.337.037.112.075.262.075.449zm-.452 0c0-.225-.075-.412-.226-.524a.928.928 0 0 0-.564-.187h-.715v1.459h.753c.15 0 .263-.038.376-.075a.385.385 0 0 0 .226-.187c.037-.075.113-.15.113-.225.037-.075.037-.15.037-.261zm1.882 2.617c0 .038-.038.075-.038.075h-.376c-.038 0-.075-.037-.038-.075l1.204-3.627c0-.075.038-.075.113-.075h.34c.037 0 .074 0 .074.037 0 0 .038.038.038.075l1.204 3.665c0 .038 0 .075-.038.075h-.412s-.038-.037-.038-.075l-.301-.935h-1.43l-.301.86zm1.317-2.28l-.263-.936-.264.935-.3.973h1.166l-.339-.973zm5.08 2.28v.075c0 .038-.037.038-.037.038h-.414c-.038 0-.038-.038-.038-.075l-.753-1.534h-.752v1.496c0 .075-.038.113-.113.113h-.264c-.075 0-.112-.038-.112-.113v-3.627c0-.075.037-.075.112-.075h1.167c.15 0 .301.037.414.075.15.037.263.112.376.187.113.075.188.187.264.336.075.15.075.3.075.487 0 .112 0 .224-.038.336a2.438 2.438 0 0 1-.113.3c-.075.111-.15.186-.225.261-.113.075-.226.15-.339.187l.79 1.533zm-.527-2.655a.742.742 0 0 0-.075-.337.452.452 0 0 0-.188-.186l-.226-.113c-.075-.037-.188-.037-.263-.037h-.715v1.421h.715c.075 0 .188 0 .263-.037a.408.408 0 0 0 .264-.112.384.384 0 0 0 .188-.225c.037-.075.037-.224.037-.374zm3.274 2.169l.452-1.384.565-1.758c0-.037.037-.074.113-.074h.3c.038 0 .076.037.038.075l-1.204 3.627c0 .038-.038.075-.113.075h-.376s-.038-.037-.038-.075l-1.204-3.665c-.038-.075 0-.075.038-.075h.376s.038.038.038.075l.564 1.758.452 1.421zm2.785.486c0 .038-.037.075-.037.075h-.376c-.038 0-.076-.037-.038-.075l1.204-3.627c0-.075.037-.075.113-.075h.338c.038 0 .075 0 .075.037 0 0 .038.038.038.075l1.204 3.665c0 .038 0 .075-.037.075h-.414s-.038-.037-.038-.075l-.3-.935h-1.43l-.302.86zm1.28-2.28l-.264-.936-.263.935-.301.973h1.166l-.339-.973zm4.891 2.355H74.93c-.075 0-.113-.037-.113-.075v-3.628c0-.074.038-.112.113-.112h1.995c.075 0 .112.038.112.075v.262c0 .075-.037.112-.112.112h-1.656v1.234h1.467c.076 0 .113.038.113.075v.225c0 .074-.037.074-.113.074h-1.467v1.384h1.693c.075 0 .075.037.075.112v.225c.038 0 .038.037 0 .037zm5.457-3.852h.226c.075 0 .188 0 .263.037.075.038.188.038.301.038.113.037.188.037.263.074.038.038.076.038.076.075v.075l-.038.15c0 .037 0 .037-.038.037 0 0-.037.037-.075 0-.113-.038-.263-.038-.451-.038-.189 0-.34-.037-.527-.037-.226 0-.414.037-.527.112a.886.886 0 0 0-.301.337c-.075.15-.113.3-.15.486-.038.187-.038.374-.038.598 0 .188 0 .375.037.561.038.187.076.337.15.487.076.15.19.261.302.336.113.075.301.112.527.112.188 0 .338 0 .527-.037.15 0 .3-.037.451-.037h.075l.038.037.038.15v.074c0 .038-.038.038-.076.038-.075.037-.15.037-.263.075-.113.037-.188.037-.301.037-.113 0-.188.037-.263.037h-.226c-.301 0-.565-.037-.753-.15a1.6 1.6 0 0 1-.451-.41 1.646 1.646 0 0 1-.226-.599 4.557 4.557 0 0 1-.076-.71c0-.262 0-.487.038-.748a1.83 1.83 0 0 1 .226-.636c.113-.187.263-.337.451-.45.226-.036.49-.111.79-.111zm5.042 3.777v.075c0 .038-.037.038-.037.038h-.414c-.038 0-.038-.038-.038-.075l-.753-1.534h-.752v1.496c0 .075-.038.113-.113.113h-.264c-.075 0-.112-.038-.112-.113v-3.627c0-.075.037-.075.112-.075h1.167c.15 0 .301.037.414.075.15.037.263.112.376.187.113.075.188.187.264.336.075.15.075.3.075.487 0 .112 0 .224-.038.336a2.549 2.549 0 0 1-.113.3c-.075.111-.15.186-.225.261-.113.075-.226.15-.34.187l.791 1.533zm-.527-2.655a.742.742 0 0 0-.075-.337.452.452 0 0 0-.188-.186l-.226-.113c-.075-.037-.188-.037-.263-.037h-.715v1.421h.715c.075 0 .188 0 .263-.037a.408.408 0 0 0 .263-.112.384.384 0 0 0 .189-.225c0-.075.037-.224.037-.374zm4.29 2.73h-2.107c-.075 0-.113-.037-.113-.075v-3.628c0-.074.038-.112.113-.112h1.994c.076 0 .113.038.113.075v.262c0 .075-.037.112-.113.112H89.53v1.234h1.467c.075 0 .113.038.113.075v.225c0 .074-.038.074-.113.074H89.53v1.384h1.693c.075 0 .075.037.075.112v.262zm3.989-1.047c0 .224-.037.374-.113.523-.075.15-.15.262-.3.337-.151.075-.264.15-.414.187-.151.037-.34.075-.49.075h-.263c-.113 0-.188 0-.301-.038-.113 0-.188-.037-.301-.037-.113-.038-.188-.038-.226-.075-.038-.037-.075-.037-.075-.075V22.7l.037-.15c0-.037.038-.074.113-.074.076 0 .188.037.264.037a.94.94 0 0 1 .3.038h.49c.3 0 .527-.038.64-.15a.532.532 0 0 0 .225-.449c0-.112 0-.224-.037-.336l-.113-.224c-.075-.038-.15-.113-.263-.15a1.107 1.107 0 0 0-.377-.075c-.188-.037-.338-.075-.49-.112-.15-.038-.3-.112-.375-.15a.695.695 0 0 1-.264-.299.794.794 0 0 1-.113-.449c0-.336.113-.636.301-.823.226-.186.527-.261.904-.261h.225c.076 0 .188 0 .264.037.113 0 .188.038.3.038.114.037.189.037.264.074.038 0 .075.038.075.038v.074l-.037.15c0 .037 0 .037-.038.037 0 0-.038.038-.075 0-.113-.037-.264-.037-.452-.037s-.338-.037-.526-.037c-.151 0-.264 0-.377.037a.615.615 0 0 0-.226.112.206.206 0 0 0-.112.187c-.038.075-.038.187-.038.262 0 .112 0 .224.037.262a.293.293 0 0 0 .151.15c.075.037.15.074.264.112.112.037.225.037.376.075.15.037.338.074.489.112.15.037.263.112.376.187.113.074.188.187.264.299 0 .262.037.449.037.636zm2.973-2.805h.225a.65.65 0 0 1 .264.037c.113 0 .188.038.3.038.114.037.189.037.264.074.038.038.075.038.075.075v.075l-.037.15c0 .037 0 .037-.038.037 0 0-.037.037-.075 0-.113-.038-.263-.038-.452-.038-.188 0-.338-.037-.526-.037-.226 0-.414.037-.527.112a.885.885 0 0 0-.301.337c-.076.15-.113.3-.15.486-.038.187-.038.374-.038.598 0 .188 0 .375.037.561.038.187.075.337.15.487.076.15.189.261.302.336.113.075.3.112.527.112.188 0 .338 0 .526-.037.151 0 .302-.037.452-.037h.075l.038.037.037.15v.074c0 .038-.037.038-.075.038-.075.037-.15.037-.263.075-.113.037-.188.037-.301.037-.113 0-.188.037-.264.037h-.225c-.301 0-.565-.037-.753-.15a1.601 1.601 0 0 1-.452-.41 1.645 1.645 0 0 1-.225-.599 4.544 4.544 0 0 1-.076-.71c0-.262 0-.487.038-.748a1.83 1.83 0 0 1 .226-.636c.113-.187.263-.337.451-.45.226-.036.49-.111.79-.111zm3.951 3.515c.301 0 .527-.074.677-.224.151-.15.226-.411.226-.748V19.26c0-.038 0-.075.037-.075 0 0 .038-.037.076-.037h.263c.038 0 .038 0 .075.037 0 0 .038.038.038.075v2.655c0 .112-.038.225-.075.337-.113.262-.264.449-.489.56-.226.113-.49.188-.753.188-.64 0-1.091-.262-1.242-.748-.037-.112-.075-.225-.075-.337 0-.112-.038-.224-.038-.374v-2.319c0-.037 0-.074.038-.074 0 0 .038-.038.075-.038h.264c.037 0 .037 0 .075.038 0 0 .037.037.037.075v2.356c0 .336.076.56.226.748.038.15.264.261.565.261zm3.575-2.655v2.917c0 .075-.038.113-.113.113h-.226c-.075 0-.113-.038-.113-.113v-3.627c0-.075.038-.075.076-.075h.225c.038 0 .076 0 .076.037 0 0 .037.038.037.075l1.581 2.394.301.486v-2.88c0-.037 0-.075.037-.075 0 0 .038-.037.076-.037h.225c.038 0 .038 0 .076.037 0 0 .037.038.037.075v3.628c0 .075-.037.075-.075.075h-.226c-.037 0-.075 0-.075-.038-.038 0-.038-.037-.075-.075l-1.543-2.393-.301-.524zm6.284-.411h-.978v3.328c0 .075-.038.112-.076.112h-.263c-.075 0-.113-.037-.113-.112v-3.328h-.978c-.076 0-.113-.038-.113-.112v-.225c0-.075.037-.075.113-.075h2.408c.075 0 .113.038.113.075v.262c0 .037-.038.075-.113.075z" fill="#fff"/></svg>