<svg width="90" height="13" fill="none" xmlns="http://www.w3.org/2000/svg"><path d="M14.355 5.702l.356-1.782a.162.162 0 0 0-.148-.208h-2.377l.357-1.9a.162.162 0 0 0-.149-.209h-2.228a.411.411 0 0 0-.386.327l-.802 4.069H6.215l.832-4.218a.162.162 0 0 0-.149-.208H4.67a.411.411 0 0 0-.386.327l-.416 1.812H1.669a.411.411 0 0 0-.386.327L.927 5.82c-.03.119.06.208.148.208h2.347l-.445 2.316H.749a.411.411 0 0 0-.387.327l-.356 1.782c-.03.119.06.208.148.208h2.347l-.356 1.9c0 .12.06.209.178.209h2.228a.411.411 0 0 0 .386-.327l.803-4.069h2.762l-.831 4.218c0 .089.059.178.178.178h2.258a.411.411 0 0 0 .386-.327l.356-1.752h2.229a.411.411 0 0 0 .386-.327l.356-1.782a.162.162 0 0 0-.148-.208h-2.347l.445-2.317h2.228c.149-.03.327-.178.357-.356zm14.674 6.95c-.06.089-.149.118-.327.118h-1.99c-.268 0-.387-.118-.327-.386l.92-4.752c.12-.564.09-.92-.029-1.099-.119-.178-.357-.267-.713-.267-.208 0-.505.06-.832.178-.327.119-.624.238-.891.356l-.149.832-.92 4.752c-.03.09-.06.178-.12.268a.475.475 0 0 1-.326.118h-1.99c-.268 0-.357-.118-.298-.386l.921-4.811c.09-.505.09-.862-.03-1.04-.118-.178-.356-.267-.683-.267-.208 0-.505.06-.832.148-.326.12-.623.238-.92.357l-1.1 5.613c-.03.09-.06.178-.119.268-.059.089-.178.118-.356.118h-1.99c-.268 0-.357-.118-.298-.386l1.575-8.138a.565.565 0 0 1 .149-.297.475.475 0 0 1 .326-.119h1.99c.179 0 .268.03.298.12.03.088.03.177 0 .266l-.06.446.03.03a5.77 5.77 0 0 1 1.396-.743c.476-.178.98-.267 1.426-.267.535 0 1.01.089 1.367.297.386.208.624.505.713.92a7.88 7.88 0 0 1 1.634-.89 4.305 4.305 0 0 1 1.664-.357c.653 0 1.128.119 1.426.327.326.208.534.475.623.831.12.327.149.713.09 1.13-.03.415-.12.83-.179 1.276l-1.01 5.168c.03.09 0 .178-.06.268zm1.753-2.763c0-.387.03-.773.09-1.159.059-.386.148-.772.237-1.158.119-.446.297-.92.505-1.366.208-.446.505-.862.891-1.248a3.77 3.77 0 0 1 1.456-.89c.565-.238 1.307-.357 2.169-.357.416 0 .832.06 1.218.148.386.09.742.238 1.04.446.297.208.534.445.713.772.178.297.267.653.267 1.07 0 .712-.178 1.276-.565 1.722a3.783 3.783 0 0 1-1.425 1.01c-.565.237-1.189.386-1.842.475a26.92 26.92 0 0 1-2.02.178c-.06.119-.09.475-.09.653 0 .535.921.595 1.1.624.683.09 2.08-.089 3.09-.267a.608.608 0 0 1 .326 0c.09.03.119.119.119.297v.861c0 .238-.03.416-.12.505-.088.09-.237.208-.504.297-.208.06-.446.149-.713.178a7.01 7.01 0 0 1-.832.12c-.297.029-.564.059-.861.059-.298.03-.565.03-.803.03-.505 0-.98-.06-1.426-.15a3.442 3.442 0 0 1-1.099-.534 2.586 2.586 0 0 1-.713-.95 4.408 4.408 0 0 1-.208-1.366zm6.001-3.416a.76.76 0 0 0-.237-.564c-.149-.149-.387-.238-.684-.238-.297 0-.683.09-.89.238a2.07 2.07 0 0 0-.536.594 3.29 3.29 0 0 0-.356.802c-.09.297-.09.267-.149.534 1.486.06 2.436-.416 2.615-.624.148-.178.237-.415.237-.742zm8.883 5.467c0 .118-.03.266-.118.356a.565.565 0 0 1-.327.207c-.238.06-.476.12-.743.179s-.505.089-.743.118c-.237.03-.475.06-.683.06-.208 0-.386.03-.535.03-.564 0-1.01-.09-1.337-.238a1.337 1.337 0 0 1-.683-.653c-.148-.268-.208-.565-.208-.921 0-.357.03-.713.119-1.07l.802-4.039h-.802c-.148 0-.238-.03-.267-.089-.03-.06-.06-.178-.03-.297l.267-1.366c.03-.119.06-.238.149-.297.06-.06.178-.09.327-.09h.802l.327-1.722c.089-.356.237-.475.534-.475h1.931c.297 0 .238.178.238.327l-.356 1.87h1.841c.179 0 .268.03.297.09.03.06.03.148 0 .297l-.267 1.366c-.03.119-.06.238-.119.297-.06.06-.178.09-.327.09h-1.871l-.624 3.355c-.03.179-.06.327-.06.446s.03.208.06.297c.06.089.149.148.297.178.149.03.327.06.594.06.149 0 .327 0 .565-.03.237 0 .475-.03.683-.06.119 0 .208 0 .267.03.06.03.09.149.09.356l-.09 1.337zm8.972.415c0 .089-.06.178-.119.267-.06.09-.178.119-.356.119h-2.05c-.149 0-.238-.03-.268-.09-.03-.059-.03-.148 0-.266l.09-.446-.03-.03c-.505.327-1.01.594-1.426.743a4.2 4.2 0 0 1-1.307.238c-.892 0-1.515-.238-1.842-.684-.327-.475-.505-1.099-.505-1.87 0-.298.03-.595.06-.922.029-.326.088-.653.148-1.01.118-.712.297-1.336.505-1.9.208-.565.445-1.07.772-1.456a3.552 3.552 0 0 1 1.159-.95c.475-.238 1.04-.327 1.723-.327.327 0 .683.06 1.099.149a6.38 6.38 0 0 1 1.129.445l.06-.297c.03-.119.059-.208.118-.237.06-.03.149-.06.268-.06h2.02c.178 0 .267.03.297.119.03.06.03.178 0 .297l-1.545 8.168zm-2.97-6.297c-.239 0-.506.03-.684.119-.178.09-.327.178-.476.356-.118.149-.326.624-.415.891-.09.268-.179.565-.238.921-.09.475-.149.95-.149 1.218 0 .386.06.653.179.772s.326.178.594.178c.267 0 .683-.089 1.04-.178.297-.089.653-.267.802-.356l.713-3.594a2.85 2.85 0 0 0-1.367-.327zm12.567 6.387c-.03.208-.148.297-.386.297h-.772c-.209 0-.298-.09-.238-.297l1.04-5.346c.059-.416.118-.743.118-1.01 0-.268-.03-.475-.118-.654a.703.703 0 0 0-.387-.326 2.244 2.244 0 0 0-.683-.09c-.208 0-.475.03-.802.12a8.068 8.068 0 0 0-.921.296c-.297.12-.594.208-.891.327a18.88 18.88 0 0 1-.624.267l-1.248 6.416c-.03.208-.148.297-.386.297h-.743c-.208 0-.297-.09-.238-.297L59.364.297c.06-.208.178-.297.356-.297h.743c.208 0 .297.09.267.297l-.89 4.604h.029c.178-.09.386-.208.654-.357.267-.119.534-.267.861-.356.297-.119.624-.208.95-.297a3.69 3.69 0 0 1 .981-.119c.594 0 1.04.09 1.337.267.327.179.535.416.654.683.118.297.178.654.148 1.07-.03.416-.089.861-.178 1.336l-1.04 5.317zm8.407.001c-.03.207-.149.297-.357.297h-.742c-.208 0-.297-.09-.268-.297l.12-.684c-.447.268-.952.535-1.486.802-.535.238-1.159.357-1.842.357-.832 0-1.426-.208-1.783-.624-.356-.416-.535-1.04-.535-1.841 0-.297.03-.624.06-.95.03-.357.09-.714.178-1.04.149-.743.327-1.426.535-1.99.208-.565.475-1.07.802-1.456.327-.386.743-.713 1.218-.89.475-.209 1.07-.298 1.783-.298.326 0 .713.06 1.158.178.446.12.862.268 1.307.505l.03-.03.06-.267c.03-.118.059-.178.118-.208.06-.03.149-.03.268-.03h.683c.119 0 .208.03.267.06.03.03.03.119.03.267l-1.604 8.139zm0-6.861c-.862-.386-1.694-.565-2.496-.565-.386 0-.742.06-1.01.179a1.717 1.717 0 0 0-.742.564c-.208.267-.387.624-.535 1.07-.149.445-.297.98-.416 1.633-.06.386-.119.742-.178 1.04-.03.326-.06.563-.06.771 0 .565.12.921.327 1.1.208.178.535.267.95.267.209 0 .476-.03.773-.12a5.07 5.07 0 0 0 .891-.266c.297-.12.594-.208.862-.327.267-.119.505-.208.654-.297l.98-5.05zm8.794-.595a.268.268 0 0 1-.179.177c-.089.03-.208.03-.327.03-.356-.03-.742-.089-1.128-.119a15.13 15.13 0 0 0-1.159-.06c-.297 0-.564.03-.802.06-.238.03-.475.12-.654.238a1.19 1.19 0 0 0-.416.445 1.59 1.59 0 0 0-.148.713c0 .208.06.386.148.505.09.119.208.238.357.327.148.089.327.148.535.208.208.06.386.089.594.148.178.03.445.09.742.179.298.089.595.207.862.356.267.148.505.386.713.653.178.268.297.624.297 1.07 0 .594-.119 1.099-.297 1.485a2.485 2.485 0 0 1-.832.92c-.356.238-.772.386-1.218.476-.475.089-.95.148-1.456.148-.237 0-.475 0-.742-.03l-.802-.089c-.268-.03-.505-.089-.713-.119a4.307 4.307 0 0 1-.565-.178c-.148-.089-.178-.208-.119-.386l.149-.386c.06-.119.119-.178.178-.208.06-.03.149-.03.268-.03.178.03.386.06.594.06.237.03.445.06.683.06.238.029.446.029.683.059.208 0 .386.03.535.03.327 0 .594-.03.891-.06.268-.06.505-.119.713-.238.208-.118.357-.267.476-.475.118-.208.178-.475.178-.802 0-.445-.149-.742-.446-.92-.297-.179-.653-.298-1.099-.357a5.58 5.58 0 0 1-.862-.178 4.654 4.654 0 0 1-.89-.357 1.958 1.958 0 0 1-.684-.623c-.178-.268-.267-.594-.267-1.01 0-.535.089-.98.297-1.337.208-.356.445-.653.802-.89.327-.238.713-.387 1.158-.476a6.658 6.658 0 0 1 1.367-.148c.178 0 .386 0 .624.03.238 0 .505.029.772.059.268.03.505.089.743.148a5.1 5.1 0 0 1 .594.178c.09.03.119.09.149.149 0 .06 0 .148-.03.208l-.267.356zm7.338 7.455c-.03.208-.148.297-.386.297h-.772c-.208 0-.297-.09-.238-.297l1.04-5.346c.06-.416.119-.743.119-1.01 0-.268-.03-.475-.12-.654a.702.702 0 0 0-.386-.326 2.243 2.243 0 0 0-.683-.09c-.208 0-.475.03-.802.12a7.987 7.987 0 0 0-.92.296c-.298.12-.595.208-.892.327a17.19 17.19 0 0 1-.624.267l-1.218 6.416c-.03.208-.149.297-.386.297h-.743c-.208 0-.297-.09-.238-.297L83.902.297c.06-.208.178-.297.357-.297H85c.208 0 .297.09.268.297l-.892 4.604h.03c.178-.09.386-.208.654-.357.267-.119.534-.267.861-.356.297-.119.624-.208.95-.297.328-.09.654-.119.981-.119.594 0 1.04.09 1.337.267.327.179.535.416.654.683.119.297.178.654.148 1.07-.03.416-.089.861-.178 1.336l-1.04 5.317z" fill="#99CEFF" fill-opacity=".5"/></svg>